<?xml version="1.0" encoding="UTF-8"?>
<svg width="28px" height="28px" viewBox="0 0 28 28" version="1.1" xmlns="http://www.w3.org/2000/svg" xmlns:xlink="http://www.w3.org/1999/xlink">
    <!-- Generator: Sketch 55.2 (78181) - https://sketchapp.com -->
    <title>leftbar_ic_feedback</title>
    <desc>Created with Sketch.</desc>
    <g id="切图" stroke="none" stroke-width="1" fill="none" fill-rule="evenodd">
        <g id="01---导航栏" transform="translate(-328.000000, -85.000000)" fill-rule="nonzero">
            <g id="分组-17" transform="translate(328.000000, 85.000000)">
                <g id="分组-16" transform="translate(4.000000, 5.000000)" stroke="#154E9B">
                    <path d="M9.49019608,0 C10.8039216,0 12.0392157,0.254901961 13.1960784,0.754901961 C14.3529412,1.25490196 15.3529412,1.93137255 16.2156863,2.79411765 C17.0784314,3.64705882 17.754902,4.65686275 18.254902,5.80392157 C18.754902,6.95098039 19,8.18627451 19,9.50980392 C19,10.8333333 18.754902,12.0588235 18.254902,13.2058824 C17.754902,14.3529412 17.0784314,15.3529412 16.2156863,16.2156863 C15.3529412,17.0784314 14.3431373,17.754902 13.1960784,18.254902 C12.0392157,18.754902 10.8137255,19 9.49019608,19 C8.17647059,19 6.94117647,18.754902 5.79411765,18.254902 C4.64705882,17.754902 3.64705882,17.0784314 2.78431373,16.2156863 C1.92156863,15.3529412 1.24509804,14.3529412 0.745098039,13.2058824 C0.245098039,12.0588235 0,10.8333333 0,9.50980392 C0,8.19607843 0.245098039,6.96078431 0.745098039,5.80392157 C1.24509804,4.64705882 1.92156863,3.64705882 2.78431373,2.79411765 C3.64705882,1.94117647 4.64705882,1.25490196 5.79411765,0.754901961 C6.94117647,0.254901961 8.17647059,0 9.49019608,0 Z" id="路径" stroke-width="2" fill="#008EFF"></path>
                    <path d="M10.5170816,12.5721207 C9.88746488,13.1338393 8.92169675,13.0787971 8.35997809,12.4491804 C7.79825943,11.8195636 7.85330168,10.8537955 8.4829184,10.2920769 C9.9390561,8.99296949 10.6944444,7.94926458 10.6944444,7.5 C10.6944444,6.84032655 10.1596735,6.30555556 9.5,6.30555556 C8.84032655,6.30555556 8.30555556,6.84032655 8.30555556,7.5 C8.30555556,8.34376837 7.62154615,9.02777778 6.77777778,9.02777778 C5.93400941,9.02777778 5.25,8.34376837 5.25,7.5 C5.25,5.15278981 7.15278981,3.25 9.5,3.25 C11.8472102,3.25 13.75,5.15278981 13.75,7.5 C13.75,9.03884414 12.6746957,10.6471843 10.5170816,12.5721207 Z" id="形状" stroke-width="1.5" fill="#FFFFFF"></path>
                    <circle id="椭圆形" stroke-width="1.5" fill="#FFFFFF" cx="9.5" cy="15.5" r="1.5"></circle>
                </g>
                <rect id="leftbar_ic_feedback" x="0" y="0" width="28" height="28"></rect>
            </g>
        </g>
    </g>
</svg>