<?xml version="1.0" encoding="UTF-8"?>
<svg width="28px" height="28px" viewBox="0 0 28 28" version="1.1" xmlns="http://www.w3.org/2000/svg" xmlns:xlink="http://www.w3.org/1999/xlink">
    <!-- Generator: Sketch 55.2 (78181) - https://sketchapp.com -->
    <title>leftbar_ic_contact</title>
    <desc>Created with Sketch.</desc>
    <g id="切图" stroke="none" stroke-width="1" fill="none" fill-rule="evenodd">
        <g id="01---导航栏" transform="translate(-374.000000, -85.000000)">
            <g id="分组-20" transform="translate(374.000000, 85.000000)">
                <g id="分组-19" transform="translate(4.000000, 4.000000)" stroke="#154E9B">
                    <path d="M9.49019608,0 C10.8039216,0 12.0392157,0.254901961 13.1960784,0.754901961 C14.3529412,1.25490196 15.3529412,1.93137255 16.2156863,2.79411765 C17.0784314,3.64705882 17.754902,4.65686275 18.254902,5.80392157 C18.754902,6.95098039 19,8.18627451 19,9.50980392 C19,10.8333333 18.754902,12.0588235 18.254902,13.2058824 C17.754902,14.3529412 17.0784314,15.3529412 16.2156863,16.2156863 C15.3529412,17.0784314 14.3431373,17.754902 13.1960784,18.254902 C12.0392157,18.754902 10.8137255,19 9.49019608,19 C8.17647059,19 6.94117647,18.754902 5.79411765,18.254902 C4.64705882,17.754902 3.64705882,17.0784314 2.78431373,16.2156863 C1.92156863,15.3529412 1.24509804,14.3529412 0.745098039,13.2058824 C0.245098039,12.0588235 0,10.8333333 0,9.50980392 C0,8.19607843 0.245098039,6.96078431 0.745098039,5.80392157 C1.24509804,4.64705882 1.92156863,3.64705882 2.78431373,2.79411765 C3.64705882,1.94117647 4.64705882,1.25490196 5.79411765,0.754901961 C6.94117647,0.254901961 8.17647059,0 9.49019608,0 Z" id="路径" stroke-width="2" fill="#008EFF" fill-rule="nonzero"></path>
                    <path d="M9.6646509,18.0223476 C9.23621501,17.9998348 8.91384013,17.924232 8.37065448,17.735355 C8.04688662,17.6227741 7.78753957,17.4727782 7.66319947,17.327263 C7.40325514,17.1050089 7.25,16.7789825 7.25,16.4299142 C7.25,15.9415999 7.54647834,15.5217846 7.96970624,15.3427798 C7.67111301,15.1959996 7.4143398,15.0240307 7.19859421,14.8236311 C6.07668842,13.73905 6.02428474,12.2193263 6.93112643,10.442461 C6.97998527,10.346727 7.03182255,10.2537169 7.08656898,10.1634394 C7.07110215,10.1596018 7.05546352,10.1557837 7.03965353,10.1519855 C7.02961797,10.1599901 7.01987985,10.1680042 7.01046745,10.1759993 C6.61353441,10.6829159 6.01808537,10.9885673 5.3709259,10.9885673 C4.1869466,10.9885673 3.25,9.98124067 3.25,8.76466243 C3.25,7.79834586 3.84458325,6.94207767 4.66400578,6.66908746 C4.9013135,6.56674877 5.1723,6.48831833 5.47807148,6.43096005 C5.86984312,6.35746939 6.24845944,6.33657204 6.6128493,6.3670669 C6.43777587,6.06263484 6.3426817,5.70756355 6.3426817,5.326025 C6.3426817,4.1805619 7.26805934,3.25042582 8.41149931,3.25042582 C8.43501861,3.25051411 8.43501861,3.25051411 8.45095835,3.2508227 C10.4693554,3.27600528 11.8703063,4.9585441 12.72738,8.08636084 C12.8499929,8.1068034 12.9677033,8.13010204 13.0788926,8.15586732 C14.1781802,8.41059914 14.9950582,9.24763876 15.5558062,10.6608466 C16.040113,12.4579622 15.6752301,13.8532915 14.4607916,14.6582911 C14.7281029,15.6126349 14.9050443,16.2755169 14.9931116,16.6533932 C15.2280273,17.6613624 14.3383353,18.1258088 11.6611051,18.9140329 C10.8582291,19.0771835 10.062221,18.7017234 9.6646509,18.0223476 Z" id="合并形状" stroke-width="1.5" fill="#FFFFFF"></path>
                    <path d="M9.49019608,0 C10.8039216,0 12.0392157,0.254901961 13.1960784,0.754901961 C14.3529412,1.25490196 15.3529412,1.93137255 16.2156863,2.79411765 C17.0784314,3.64705882 17.754902,4.65686275 18.254902,5.80392157 C18.754902,6.95098039 19,8.18627451 19,9.50980392 C19,10.8333333 18.754902,12.0588235 18.254902,13.2058824 C17.754902,14.3529412 17.0784314,15.3529412 16.2156863,16.2156863 C15.3529412,17.0784314 14.3431373,17.754902 13.1960784,18.254902 C12.0392157,18.754902 10.8137255,19 9.49019608,19 C8.17647059,19 6.94117647,18.754902 5.79411765,18.254902 C4.64705882,17.754902 3.64705882,17.0784314 2.78431373,16.2156863 C1.92156863,15.3529412 1.24509804,14.3529412 0.745098039,13.2058824 C0.245098039,12.0588235 0,10.8333333 0,9.50980392 C0,8.19607843 0.245098039,6.96078431 0.745098039,5.80392157 C1.24509804,4.64705882 1.92156863,3.64705882 2.78431373,2.79411765 C3.64705882,1.94117647 4.64705882,1.25490196 5.79411765,0.754901961 C6.94117647,0.254901961 8.17647059,0 9.49019608,0 Z" id="路径" stroke-width="2" fill-rule="nonzero"></path>
                </g>
                <rect id="leftbar_ic_contact" fill-rule="nonzero" x="0" y="0" width="28" height="28"></rect>
            </g>
        </g>
    </g>
</svg>