<?xml version="1.0" encoding="UTF-8"?>
<svg width="28px" height="28px" viewBox="0 0 28 28" version="1.1" xmlns="http://www.w3.org/2000/svg" xmlns:xlink="http://www.w3.org/1999/xlink">
    <!-- Generator: Sketch 55.2 (78181) - https://sketchapp.com -->
    <title>leftbar_ic_home</title>
    <desc>Created with Sketch.</desc>
    <g id="切图" stroke="none" stroke-width="1" fill="none" fill-rule="evenodd">
        <g id="01---导航栏" transform="translate(-98.000000, -85.000000)" fill-rule="nonzero">
            <g id="分组-14" transform="translate(98.000000, 85.000000)">
                <path d="M21,15.6277229 L21,21.0638377 C21,21.9553565 20.9071744,22.2786427 20.7328673,22.6045686 C20.5585602,22.9304946 20.3027716,23.1862831 19.9768457,23.3605902 C19.6509198,23.5348973 19.3276335,23.6277229 18.4361148,23.6277229 L8.5638852,23.6277229 C7.67236646,23.6277229 7.34908022,23.5348973 7.0231543,23.3605902 C6.69722837,23.1862831 6.4414398,22.9304946 6.2671327,22.6045686 C6.09282561,22.2786427 6,21.9553565 6,21.0638377 L6,15.6277229 L5.91891917,15.6277229 C4.81434967,15.6277229 3.91891917,14.7322924 3.91891917,13.6277229 C3.91891917,13.0781554 4.14506154,12.5528027 4.54422966,12.1750603 L11.4379652,5.65135303 C12.5947307,4.5566781 14.4052691,4.55667835 15.5620343,5.65135361 L22.4557657,12.1750607 C23.2580489,12.934281 23.2929584,14.2001296 22.5337381,15.0024129 C22.1559957,15.4015807 21.6306432,15.6277229 21.0810758,15.6277229 L21,15.6277229 Z" id="合并形状" stroke="#154E9B" stroke-width="2" fill="#008EFF"></path>
                <path d="M10.2499882,23.45 L16.7499882,23.45 L16.7499882,18.018698 C16.7499882,16.2237726 15.2949137,14.768698 13.4999882,14.768698 C11.7050628,14.768698 10.2499882,16.2237726 10.2499882,18.018698 L10.2499882,23.45 Z" id="矩形-copy-3" stroke="#154E9B" stroke-width="1.5" fill="#FFFFFF"></path>
                <rect id="leftbar_ic_home" x="0" y="0" width="28" height="28"></rect>
            </g>
        </g>
    </g>
</svg>