<?xml version="1.0" encoding="UTF-8"?>
<svg width="28px" height="28px" viewBox="0 0 28 28" version="1.1" xmlns="http://www.w3.org/2000/svg" xmlns:xlink="http://www.w3.org/1999/xlink">
    <!-- Generator: Sketch 55.2 (78181) - https://sketchapp.com -->
    <title>leftbar_ic_bind</title>
    <desc>Created with Sketch.</desc>
    <g id="切图" stroke="none" stroke-width="1" fill="none" fill-rule="evenodd">
        <g id="01---导航栏" transform="translate(-144.000000, -85.000000)">
            <g id="编组-2" transform="translate(144.000000, 85.000000)">
                <path d="M8.5638852,4.09120604 L18.4361148,4.09120604 C19.3276335,4.09120604 19.6509198,4.18403165 19.9768457,4.35833874 C20.3027716,4.53264584 20.5585602,4.78843441 20.7328673,5.11436034 C20.9071744,5.44028626 21,5.7635725 21,6.65509124 L21,21.5273208 C21,22.4188396 20.9071744,22.7421258 20.7328673,23.0680517 C20.5585602,23.3939777 20.3027716,23.6497662 19.9768457,23.8240733 C19.6509198,23.9983804 19.3276335,24.091206 18.4361148,24.091206 L8.5638852,24.091206 C7.67236646,24.091206 7.34908022,23.9983804 7.0231543,23.8240733 C6.69722837,23.6497662 6.4414398,23.3939777 6.2671327,23.0680517 C6.09282561,22.7421258 6,22.4188396 6,21.5273208 L6,6.65509124 C6,5.7635725 6.09282561,5.44028626 6.2671327,5.11436034 C6.4414398,4.78843441 6.69722837,4.53264584 7.0231543,4.35833874 C7.34908022,4.18403165 7.67236646,4.09120604 8.5638852,4.09120604 Z" id="矩形-copy" fill="#008EFF" fill-rule="nonzero"></path>
                <path d="M6,17 L21,17 L21,21.4361148 C21,22.3276335 20.9071744,22.6509198 20.7328673,22.9768457 C20.5585602,23.3027716 20.3027716,23.5585602 19.9768457,23.7328673 C19.6509198,23.9071744 19.3276335,24 18.4361148,24 L8.5638852,24 C7.67236646,24 7.34908022,23.9071744 7.0231543,23.7328673 C6.69722837,23.5585602 6.4414398,23.3027716 6.2671327,22.9768457 C6.09282561,22.6509198 6,22.3276335 6,21.4361148 L6,17 Z" id="矩形-copy" fill="#FFFFFF" fill-rule="nonzero"></path>
                <path d="M6.5,16.9201655 L20.354323,16.9201655" id="直线-3-copy" stroke="#154E9B" stroke-width="1.5" stroke-linecap="square" fill-rule="nonzero"></path>
                <circle id="椭圆形-copy-3" stroke="#154E9B" stroke-width="1.5" fill="#008EFF" fill-rule="nonzero" cx="13.5" cy="20.5" r="1.5"></circle>
                <path d="M11.137976,7 L16.137976,7" id="直线-3" stroke="#154E9B" stroke-width="1.5" stroke-linecap="round" stroke-linejoin="round"></path>
                <rect id="leftbar_ic_bind" fill-rule="nonzero" x="0" y="0" width="28" height="28"></rect>
                <path d="M8.5638852,4.09120604 L18.4361148,4.09120604 C19.3276335,4.09120604 19.6509198,4.18403165 19.9768457,4.35833874 C20.3027716,4.53264584 20.5585602,4.78843441 20.7328673,5.11436034 C20.9071744,5.44028626 21,5.7635725 21,6.65509124 L21,21.5273208 C21,22.4188396 20.9071744,22.7421258 20.7328673,23.0680517 C20.5585602,23.3939777 20.3027716,23.6497662 19.9768457,23.8240733 C19.6509198,23.9983804 19.3276335,24.091206 18.4361148,24.091206 L8.5638852,24.091206 C7.67236646,24.091206 7.34908022,23.9983804 7.0231543,23.8240733 C6.69722837,23.6497662 6.4414398,23.3939777 6.2671327,23.0680517 C6.09282561,22.7421258 6,22.4188396 6,21.5273208 L6,6.65509124 C6,5.7635725 6.09282561,5.44028626 6.2671327,5.11436034 C6.4414398,4.78843441 6.69722837,4.53264584 7.0231543,4.35833874 C7.34908022,4.18403165 7.67236646,4.09120604 8.5638852,4.09120604 Z" id="矩形-copy" stroke="#154E9B" stroke-width="2" fill-rule="nonzero"></path>
            </g>
        </g>
    </g>
</svg>