<?xml version="1.0" encoding="UTF-8"?>
<svg width="28px" height="28px" viewBox="0 0 28 28" version="1.1" xmlns="http://www.w3.org/2000/svg" xmlns:xlink="http://www.w3.org/1999/xlink">
    <!-- Generator: Sketch 55.2 (78181) - https://sketchapp.com -->
    <title>leftbar_ic_download</title>
    <desc>Created with Sketch.</desc>
    <g id="切图" stroke="none" stroke-width="1" fill="none" fill-rule="evenodd">
        <g id="01---导航栏" transform="translate(-236.000000, -85.000000)" fill-rule="nonzero">
            <g id="分组" transform="translate(236.000000, 85.000000)">
                <rect id="Rectangle" stroke="#154E9B" stroke-width="2" fill="#FFFFFF" stroke-linecap="round" stroke-linejoin="round" x="5" y="20" width="16" height="3" rx="1.5"></rect>
                <path d="M15.360959,13.0909091 L20.4335992,13.0909091 C20.5064673,13.0909091 20.578455,13.1068338 20.6445241,13.1375687 C20.8949373,13.2540593 21.0035031,13.5514936 20.8869464,13.8018761 C19.584987,16.6006254 17.1226403,18 13.4999061,18 C9.87714904,18 7.41479404,16.6006077 6.1128411,13.801823 C6.08210828,13.7357573 6.06618465,13.6637733 6.06618465,13.5909091 C6.06618465,13.3147367 6.2900666,13.0908548 6.56623899,13.0909091 L11.6390555,13.0909091 L11.6390555,6.5 C11.6390555,5.67157288 12.3106284,5 13.1390555,5 L13.860959,5 C14.6893862,5 15.360959,5.67157288 15.360959,6.5 L15.360959,13.0909091 Z" id="合并形状" fill="#008EFF"></path>
                <path d="M15.0027118,13.0909091 L20.4960037,13.0909091 C20.5740272,13.0909091 20.6509682,13.1091668 20.7206733,13.1442221 C20.9674012,13.2683037 21.0668257,13.5689042 20.9426964,13.8156081 C19.5397852,16.6052027 16.8921902,18 12.9999116,18 C9.10761402,18 6.46001227,16.6051891 5.05710636,13.8155673 C5.02205325,13.7458657 5.00379668,13.6689286 5.00379668,13.5909091 C5.00379668,13.3147482 5.22766932,13.0908755 5.50383022,13.0909091 L10.9973292,13.0909091 L10.9973292,6.5 C10.9973292,5.67157288 11.668902,5 12.4973292,5 L13.5027118,5 C14.331139,5 15.0027118,5.67157288 15.0027118,6.5 L15.0027118,13.0909091 Z" id="合并形状" stroke="#154E9B" stroke-width="2" stroke-linecap="round" stroke-linejoin="round"></path>
                <rect id="leftbar_ic_download" x="0" y="0" width="28" height="28"></rect>
            </g>
        </g>
    </g>
</svg>