<?xml version="1.0" encoding="UTF-8"?>
<svg width="20px" height="20px" viewBox="0 0 20 20" version="1.1" xmlns="http://www.w3.org/2000/svg" xmlns:xlink="http://www.w3.org/1999/xlink">
    <!-- Generator: Sketch 52.6 (67491) - http://www.bohemiancoding.com/sketch -->
    <title>ic_show</title>
    <desc>Created with Sketch.</desc>
    <g id="现有VIP绑定设备号" stroke="none" stroke-width="1" fill="none" fill-rule="evenodd">
        <g id="页面切图" transform="translate(-151.000000, -40.000000)" fill-rule="nonzero">
            <g id="Group-3" transform="translate(151.000000, 40.000000)">
                <path d="M10.200016,15.8 C8.13544246,15.8 6.46178145,14.1882286 6.46178145,12.2 C6.46178145,10.2117714 8.13544246,8.6 10.200016,8.6 C12.2645895,8.6 13.9382505,10.2117714 13.9382505,12.2 C13.9382505,14.1882286 12.2645895,15.8 10.200016,15.8 Z M17.3534282,10.1007661 C17.5252034,10.6442214 17.2069862,11.2188554 16.642663,11.3842786 C16.0783565,11.5497018 15.4816408,11.2432518 15.3098655,10.6998125 C14.631376,8.55323214 12.5666689,7.05714286 10.200016,7.05714286 C7.833313,7.05714286 5.76858927,8.55329643 5.09013307,10.699925 C4.91837455,11.2433643 4.32165886,11.5498304 3.75733564,11.3844071 C3.19302911,11.2190161 2.8747952,10.6443661 3.04657042,10.1009268 C3.99691642,7.09394643 6.88667186,5 10.200016,5 C13.5133101,5 16.4029988,7.09389821 17.3534282,10.1007661 Z" id="Shape" fill="#8A95AB"></path>
                <rect id="Rectangle-3" x="0" y="0" width="20" height="20"></rect>
            </g>
        </g>
    </g>
</svg>