<?xml version="1.0" encoding="UTF-8"?>
<svg width="26px" height="26px" viewBox="0 0 26 26" version="1.1" xmlns="http://www.w3.org/2000/svg" xmlns:xlink="http://www.w3.org/1999/xlink">
    <!-- Generator: Sketch 55.2 (78181) - https://sketchapp.com -->
    <title>home_ic_video</title>
    <desc>Created with Sketch.</desc>
    <g id="切图" stroke="none" stroke-width="1" fill="none" fill-rule="evenodd">
        <g id="02---首页" transform="translate(-203.000000, -173.000000)">
            <g id="编组-6" transform="translate(203.000000, 173.000000)">
                <g id="编组-5" transform="translate(3.000000, 5.000000)">
                    <rect id="矩形备份" fill="#008EFF" x="3.5" y="0" width="16" height="16" rx="4"></rect>
                    <rect id="矩形" stroke="#154E9B" stroke-width="2" x="1" y="1" width="18" height="14" rx="4"></rect>
                    <path d="M13.8279899,7.5862685 L13.8281773,7.58607625 L8.95579451,4.15744531 L8.95427237,4.15891923 C8.8533191,4.06054295 8.71636518,4 8.56542314,4 C8.25492919,4 8.00323683,4.25573347 8.00323683,4.57141713 C8.00323683,4.74479521 7.99595396,5.08425386 8.00323683,5.07689227 L8.00323683,8.00004806 L8.00323683,11.0770124 C8.00323683,11.0795597 8.00323683,11.2746622 8.00323683,11.4287671 C8.00323683,11.7442585 8.25492919,12 8.56542314,12 C8.716935,12 8.85446656,11.9390645 8.95541203,11.8397911 L8.95579451,11.8399914 L13.8281773,8.41146455 L13.8279899,8.41116015 C13.9339155,8.30728069 14,8.16153064 14,7.99994392 C14,7.99955141 14,7.99925503 14,7.99876639 C14,7.99837388 14,7.99789325 14,7.99759686 C14,7.83599414 13.9339155,7.69013995 13.8279899,7.5862685 Z" id="Shape-Copy-3" stroke="#154E9B" stroke-width="1.5" fill="#FCCD53" fill-rule="nonzero" stroke-linejoin="round"></path>
                </g>
                <rect id="home_ic_video" fill-rule="nonzero" x="0" y="0" width="26" height="26"></rect>
            </g>
        </g>
    </g>
</svg>