<?xml version="1.0" encoding="UTF-8"?>
<svg width="54px" height="54px" viewBox="0 0 54 54" version="1.1" xmlns="http://www.w3.org/2000/svg" xmlns:xlink="http://www.w3.org/1999/xlink">
    <!-- Generator: Sketch 55.2 (78181) - https://sketchapp.com -->
    <title>news_ic_hot</title>
    <desc>Created with Sketch.</desc>
    <defs>
        <linearGradient x1="64.6582818%" y1="97.0399796%" x2="35.4707503%" y2="3.11239317%" id="linearGradient-1">
            <stop stop-color="#FF5274" offset="0%"></stop>
            <stop stop-color="#FF708D" offset="100%"></stop>
        </linearGradient>
        <radialGradient cx="46.709324%" cy="23.6629287%" fx="46.709324%" fy="23.6629287%" r="72.0025206%" gradientTransform="translate(0.467093,0.236629),scale(0.877539,1.000000),rotate(125.326433),translate(-0.467093,-0.236629)" id="radialGradient-2">
            <stop stop-color="#FF819A" stop-opacity="0.08" offset="0%"></stop>
            <stop stop-color="#FFFFFF" stop-opacity="0.6" offset="100%"></stop>
        </radialGradient>
        <radialGradient cx="21.1569125%" cy="11.0918899%" fx="21.1569125%" fy="11.0918899%" r="131.208708%" gradientTransform="translate(0.211569,0.110919),scale(1.000000,0.579300),rotate(94.703204),translate(-0.211569,-0.110919)" id="radialGradient-3">
            <stop stop-color="#FF819A" stop-opacity="0.08" offset="0%"></stop>
            <stop stop-color="#FFFFFF" stop-opacity="0.6" offset="100%"></stop>
        </radialGradient>
    </defs>
    <g id="切图" stroke="none" stroke-width="1" fill="none" fill-rule="evenodd">
        <g id="03---资讯" transform="translate(-33.000000, -25.000000)" fill-rule="nonzero">
            <g id="分组" transform="translate(33.000000, 25.000000)">
                <g id="分组-6">
                    <circle id="椭圆形-copy-2" fill="url(#linearGradient-1)" cx="27" cy="27" r="27"></circle>
                    <g id="分组-4" transform="translate(14.000000, 11.000000)">
                        <path d="M7.20870425,29.9041656 C5.95418421,29.3325089 4.81519597,28.5793083 3.81136364,27.6627065 C2.61846591,26.5700964 1.68039773,25.2931083 1.02301136,23.8761296 C0.343465909,22.4045203 3.55271368e-15,20.8441365 3.55271368e-15,19.2325366 C3.55271368e-15,17.4092435 0.461647727,15.5893647 1.33693182,13.9641072 C2.20482955,12.3559217 3.48636364,10.9184565 5.04119318,9.81560315 C5.68380682,9.35807267 6.27102273,8.82883964 6.79545455,8.2415617 C7.54147727,7.40161768 8.125,6.46607026 8.53125,5.45882031 C8.86363636,4.63594832 9.00397727,3.6457704 8.94857955,2.52584503 L9.05418995,1.84653912 C9.13903338,1.30081021 9.65021326,0.92718872 10.1959422,1.01203216 C10.2397514,1.0188431 10.2830592,1.02855996 10.3255789,1.04111842 L10.8239916,1.1883277 C12.9881962,2.24679375 15.2093111,4.02838236 16.4132884,6.12482802 C17.8684021,8.64807451 17.9392237,10.0137766 18.1097543,12.0863476 C18.1119745,12.1133317 18.1302957,12.2431397 18.1647179,12.4757718 L18.1647063,12.4757735 C18.1964162,12.6900756 18.3958483,12.8380958 18.6101504,12.8063859 C18.6928142,12.7941542 18.7694116,12.7558431 18.8287799,12.6970357 C19.416944,12.217525 19.749527,11.2873503 20.0486748,10.4883791 L20.2064253,10.2606398 C20.6083097,9.68045217 21.4044365,9.53590891 21.9846241,9.93779337 C22.0188397,9.96149388 22.0518771,9.98685185 22.0836179,10.0137766 C23.3946975,11.1268732 24.2955677,12.4635618 24.9769886,14.1296543 C25.6584096,15.7957469 26,17.5697206 26,19.235951 C26,20.8475509 25.6565341,22.4079347 24.9769886,23.879544 C24.3232955,25.2965227 23.3852273,26.5735108 22.1886364,27.6661209 C20.9957386,28.7621455 19.6034091,29.6191615 18.0559659,30.2166827 C17.518686,30.4238417 16.9706168,30.5968559 16.4132884,30.7353395 C14.6263086,31.0045911 12.9813196,31.0684009 11.4783213,30.926769 C9.97532305,30.7851371 8.55211736,30.4442693 7.20870425,29.9041656 Z M10.7725786,27.600004 C11.2892759,27.7954373 11.8366627,27.9187782 12.414739,27.9700269 C12.9928152,28.0212756 13.6255033,27.9981863 14.3128032,27.9007592 C14.5271603,27.8506498 14.7379562,27.7880457 14.9446023,27.7130864 C15.5397727,27.4968769 16.0752841,27.1867708 16.5340909,26.7901809 C16.9943182,26.3948265 17.3551136,25.932756 17.6065341,25.4200307 C17.8678977,24.8875377 18,24.3229222 18,23.7397744 C18,23.1368589 17.8686191,22.4949571 17.6065341,21.8920915 C17.3444491,21.2892259 16.9979606,20.8055531 16.4936992,20.4027858 L16.0803469,20.072912 C16.0192674,20.0259636 15.9226765,20.0469668 15.8956878,20.1136829 L15.7110288,20.5745179 C15.5959719,20.8636208 15.3843242,21.1589012 15.0846083,21.4492396 C15.0647219,21.4677718 15.0419947,21.4727137 15.0263697,21.4739492 C15.0107447,21.4751847 14.9865969,21.4727137 14.9652901,21.455417 C14.9454038,21.4405912 14.9354606,21.4183525 14.936881,21.3961138 C14.9894378,20.6523533 14.8724623,19.9086147 14.3128032,18.9955931 C13.8497351,18.2370067 12.9954601,17.5923496 12.1630737,17.20935 L11.5809659,17.0101007 C11.5042614,16.9705653 11.40625,17.0224556 11.4105114,17.100291 L11.4417614,17.6933226 C11.4630682,18.0985609 11.4090909,18.4568508 11.28125,18.7546021 C11.125,19.1190695 10.9005682,19.4575917 10.6136364,19.7615205 C10.4119318,19.9740235 10.1860795,20.1655233 9.93892045,20.3310779 C9.34090909,20.7301388 8.84801136,21.250277 8.51420455,21.8321893 C8.17755682,22.420279 8,23.0787912 8,23.7385389 C8,24.3216867 8.13210227,24.8863022 8.39346591,25.4187952 C8.64630682,25.9315205 9.00710227,26.393591 9.46590909,26.7889454 C9.85199845,27.1206123 10.2900708,27.3931534 10.7725786,27.600004 Z" id="合并形状" fill="#FFFFFF"></path>
                        <path d="M5.40319632,23.9766794 C5.61355925,23.9922265 5.81249381,24 6,24 C7.01923946,24 8.59982253,27.4093362 10.5499459,28.1861757 C13.1531581,29.2231758 15.9875748,28.1354366 17.3167058,27.0487231 C19.9847487,24.8672992 19.9847487,21.286567 19.4120628,19.5276378 C18.5300596,16.8186816 19.9663471,13.4534141 20.5978725,11.804046 C22.2464427,9.53794897 24.2955677,12.2897343 24.9769886,13.9558268 C25.6584096,15.6219194 25.9744668,17.1865027 25.9744668,18.8527331 C25.9744668,20.464333 25.6565341,22.4079347 24.9769886,23.879544 C24.3232955,25.2965227 23.3852273,26.5735108 22.1886364,27.6661209 C20.9957386,28.7621455 19.6034091,29.6191615 18.0559659,30.2166827 C17.518686,30.4238417 16.9706168,30.5968559 16.4132884,30.7353395 C14.6263086,31.0045911 12.9813196,31.0684009 11.4783213,30.926769 C9.97532305,30.7851371 8.55211736,30.4442693 7.20870425,29.9041656 C5.95418421,29.3325089 4.81519597,28.5793083 3.81136364,27.6627065 C3.81136364,27.6627065 3.81136364,27.6627065 3.81136364,27.6627065 C2.94595808,26.8700561 2.88697838,25.5259362 3.67962878,24.6605306 C4.11913255,24.1806861 4.75426689,23.928669 5.40320004,23.976629 Z" id="路径" fill="url(#radialGradient-2)"></path>
                        <path d="" id="路径-2" stroke="#979797"></path>
                        <path d="M11.6741814,1.90888772 C10.4660946,1.56725843 9.86205126,1.85444101 9.86205126,2.77043546 C9.86205126,4.14442712 11.7922348,4.53508043 12.4425175,7.75703593 C13.0928003,10.9789914 9.89546673,14.9057497 12.8672458,15.8361069 C15.8390249,16.7664642 17.7863558,14.3915471 18.1304034,11.9649679 C17.4802671,6.78923284 15.3281931,3.43720613 11.6741814,1.90888772 Z" id="路径-3" fill="url(#radialGradient-3)"></path>
                    </g>
                </g>
                <rect id="news_ic_hot" x="0" y="0" width="54" height="54"></rect>
            </g>
        </g>
    </g>
</svg>