<?xml version="1.0" encoding="UTF-8"?>
<svg width="16px" height="16px" viewBox="0 0 16 16" version="1.1" xmlns="http://www.w3.org/2000/svg" xmlns:xlink="http://www.w3.org/1999/xlink">
    <!-- Generator: Sketch 55.2 (78181) - https://sketchapp.com -->
    <title>content_ic_star_ gray</title>
    <desc>Created with Sketch.</desc>
    <g id="切图" stroke="none" stroke-width="1" fill="none" fill-rule="evenodd">
        <g id="04---Lite" transform="translate(-421.000000, -46.000000)">
            <g id="nav_ic_collect_selected备份-4" transform="translate(421.000000, 46.000000)">
                <path d="M7.83190217,11.5604053 C7.96896219,11.4883486 8.13270281,11.4883486 8.26976283,11.5604053 L11.2911761,13.1488563 C11.3369674,13.1729301 11.3894176,13.1812374 11.4404069,13.1724921 C11.5684546,13.1505302 11.6544542,13.0289233 11.6324922,12.9008756 L11.0554537,9.53648242 C11.0292775,9.38386385 11.0798762,9.22813726 11.19076,9.12005219 L13.6351348,6.73737572 C13.6721806,6.70126491 13.6962893,6.65394889 13.7037286,6.60275274 C13.7224105,6.4741855 13.6333308,6.35481648 13.5047636,6.33613457 L10.1267208,5.84527622 C9.97348306,5.82300947 9.84101412,5.72676515 9.77248411,5.58790818 L8.26177746,2.52688216 C8.23888184,2.48049058 8.20133164,2.44294038 8.15494006,2.42004476 C8.03843838,2.36254775 7.89738456,2.41038048 7.83988755,2.52688216 L6.32918089,5.58790818 C6.26065088,5.72676515 6.12818194,5.82300947 5.97494417,5.84527622 L2.5969014,6.33613457 C2.54570525,6.3435738 2.49838924,6.36768252 2.46227843,6.4047284 C2.37159451,6.49776053 2.37349812,6.6466918 2.46653025,6.73737572 L4.91090496,9.12005219 C5.02178885,9.22813726 5.07238748,9.38386385 5.04621135,9.53648242 L4.46917275,12.9008756 C4.46042741,12.9518649 4.4687347,13.0043151 4.49280858,13.0501063 C4.55326452,13.1651003 4.69549483,13.2093122 4.81048886,13.1488563 L7.83190217,11.5604053 Z M5.24834952,13.9817167 C4.67337935,14.2839964 3.96222781,14.0629371 3.6599481,13.487967 C3.53957874,13.2590108 3.49804225,12.9967598 3.54176899,12.7418134 L4.07699561,9.62120273 L1.80973925,7.41117399 C1.34457861,6.95775443 1.33506059,6.21309805 1.78848015,5.7479374 C1.9690342,5.562708 2.20561427,5.44216443 2.46159501,5.40496825 L5.59486623,4.94967729 L6.99610772,2.11045192 C7.28359281,1.52794351 7.98886189,1.28877986 8.5713703,1.57626494 C8.8033282,1.69074301 8.99107921,1.87849402 9.10555728,2.11045192 L10.5067988,4.94967729 L13.64007,5.40496825 C14.2829062,5.49837782 14.7283045,6.09522293 14.6348949,6.73805913 C14.5976987,6.99403988 14.4771552,7.23061995 14.2919257,7.41117399 L12.0246694,9.62120273 L12.559896,12.7418134 C12.6697055,13.3820521 12.2397077,13.9900863 11.5994691,14.0998958 C11.3445226,14.1436226 11.0822716,14.1020861 10.8533155,13.9817167 L8.0508325,12.5083642 L5.24834952,13.9817167 Z M5.47546492,13.4796088 C4.9470895,13.7573922 4.29356866,13.5542472 4.01578527,13.0258718 C3.90517047,12.8154699 3.86700004,12.5744714 3.90718322,12.3401854 L4.39903584,9.4724646 L2.31551469,7.44153342 C1.88805,7.02485833 1.87930331,6.34054783 2.2959784,5.91308314 C2.46190061,5.74286446 2.67930857,5.63208957 2.914545,5.59790771 L5.79390041,5.17951288 L7.0815873,2.57037427 C7.345775,2.03507151 7.99389009,1.81528933 8.52919285,2.07947703 C8.74235322,2.18467797 8.91488915,2.3572139 9.02009008,2.57037427 L10.307777,5.17951288 L13.1871324,5.59790771 C13.7778741,5.6837475 14.1871779,6.23222515 14.1013381,6.82296682 C14.0671563,7.05820325 13.9563814,7.27561121 13.7861627,7.44153342 L11.7026415,9.4724646 L12.1944942,12.3401854 C12.2954049,12.9285401 11.9002535,13.4873001 11.3118988,13.5882108 C11.0776129,13.628394 10.8366143,13.5902236 10.6262125,13.4796088 L8.05083869,12.1256547 L5.47546492,13.4796088 Z" id="Star" fill="#DCE2E8" fill-rule="nonzero"></path>
                <rect id="content_ic_star_-gray" fill="#4A90E2" opacity="0" x="0" y="0" width="16" height="16"></rect>
            </g>
        </g>
    </g>
</svg>