<?xml version="1.0" encoding="UTF-8"?>
<svg width="16px" height="16px" viewBox="0 0 16 16" version="1.1" xmlns="http://www.w3.org/2000/svg" xmlns:xlink="http://www.w3.org/1999/xlink">
    <!-- Generator: Sketch 55.2 (78181) - https://sketchapp.com -->
    <title>content_ic_star_ half</title>
    <desc>Created with Sketch.</desc>
    <g id="切图" stroke="none" stroke-width="1" fill="none" fill-rule="evenodd">
        <g id="04---Lite" transform="translate(-403.000000, -46.000000)">
            <g id="nav_ic_collect_selected备份-3" transform="translate(403.000000, 46.000000)">
                <path d="M5.24834952,13.9817167 C4.67337935,14.2839964 3.96222781,14.0629371 3.6599481,13.487967 C3.53957874,13.2590108 3.49804225,12.9967598 3.54176899,12.7418134 L4.07699561,9.62120273 L1.80973925,7.41117399 C1.34457861,6.95775443 1.33506059,6.21309805 1.78848015,5.7479374 C1.9690342,5.562708 2.20561427,5.44216443 2.46159501,5.40496825 L5.59486623,4.94967729 L6.99610772,2.11045192 C7.28359281,1.52794351 7.98886189,1.28877986 8.5713703,1.57626494 C8.8033282,1.69074301 8.99107921,1.87849402 9.10555728,2.11045192 L10.5067988,4.94967729 L13.64007,5.40496825 C14.2829062,5.49837782 14.7283045,6.09522293 14.6348949,6.73805913 C14.5976987,6.99403988 14.4771552,7.23061995 14.2919257,7.41117399 L12.0246694,9.62120273 L12.559896,12.7418134 C12.6697055,13.3820521 12.2397077,13.9900863 11.5994691,14.0998958 C11.3445226,14.1436226 11.0822716,14.1020861 10.8533155,13.9817167 L8.0508325,12.5083642 L5.24834952,13.9817167 Z" id="Star" fill="#DCE2E8" fill-rule="nonzero"></path>
                <path d="M5.24834952,13.9817167 C4.67337935,14.2839964 3.96222781,14.0629371 3.6599481,13.487967 C3.53957874,13.2590108 3.49804225,12.9967598 3.54176899,12.7418134 L4.07699561,9.62120273 L1.80973925,7.41117399 C1.34457861,6.95775443 1.33506059,6.21309805 1.78848015,5.7479374 C1.9690342,5.562708 2.20561427,5.44216443 2.46159501,5.40496825 L5.59486623,4.94967729 L6.99610772,2.11045192 C7.19597346,1.70547972 7.59776778,1.4664572 8.01985525,1.45487552 C8,1.45454545 8.0508325,12.5083642 8.0508325,12.5083642 C8.0508325,12.5083642 5.24834952,13.9817167 5.24834952,13.9817167 Z" id="Path" fill="#008EFF" fill-rule="nonzero"></path>
                <rect id="content_ic_star_-half" fill="#4A90E2" opacity="0" x="0" y="0" width="16" height="16"></rect>
            </g>
        </g>
    </g>
</svg>