<?xml version="1.0" encoding="UTF-8"?>
<svg width="30px" height="30px" viewBox="0 0 30 30" version="1.1" xmlns="http://www.w3.org/2000/svg" xmlns:xlink="http://www.w3.org/1999/xlink">
    <!-- Generator: Sketch 55.2 (78181) - https://sketchapp.com -->
    <title>tab_ic_home_selected</title>
    <desc>Created with Sketch.</desc>
    <g id="切图" stroke="none" stroke-width="1" fill="none" fill-rule="evenodd">
        <g id="02---Lite" transform="translate(-225.000000, -116.000000)" fill-rule="nonzero">
            <g id="分组-2" transform="translate(225.000000, 116.000000)">
                <path d="M14.5,19 L14.5,22 L10,22 C9.44771525,22 9,22.4477153 9,23 C9,23.5522847 9.44771525,24 10,24 L21,24 C21.5522847,24 22,23.5522847 22,23 C22,22.4477153 21.5522847,22 21,22 L16.5,22 L16.5,19 C16.5,19 14.5,19 14.5,19 Z" id="Shape-Copy-3" fill="#008EFF"></path>
                <path d="M6,12.0462428 L6,9 C6,8.44771525 6.44771525,8 7,8 C7.55228475,8 8,8.44771525 8,9 L8,15 C6.840625,14.6021195 6,13.4287091 6,12.0462428 Z" id="Shape-path" fill="#FFB300"></path>
                <path d="M23,12.0462428 L23,9 C23,8.44771525 23.4477153,8 24,8 C24.5522847,8 25,8.44771525 25,9 L25,15 C23.840625,14.6021195 23,13.4287091 23,12.0462428 Z" id="Shape-path-Copy-2" fill="#FFB300" transform="translate(24.000000, 11.500000) scale(-1, 1) translate(-24.000000, -11.500000) "></path>
                <path d="M22,15.25 C22,16.784375 21.3533854,18.23125 20.1752604,19.315625 C18.9971354,20.403125 17.4330729,21 15.7708333,21 L15.2291667,21 C13.5669271,21 11.9994792,20.403125 10.8247396,19.315625 C9.64661458,18.228125 9,16.784375 9,15.25 L9,7 C9,6.44771525 9.44771525,6 10,6 L21,6 C21.5522847,6 22,6.44771525 22,7 L22,15.25 Z" id="Shape-path" fill="#008EFF"></path>
                <g id="分组" transform="translate(11.400000, 9.000000)">
                    <path d="M3.37278148,6.82055907 L2.74115293,7.15332791 C2.35707262,7.35567779 1.88167703,7.20835617 1.67932715,6.82427586 C1.59965915,6.67305803 1.57145064,6.49999337 1.59897564,6.33130372 L1.72397201,5.56525108 C1.8089161,5.04466278 1.63837828,4.51498245 1.26565521,4.14174634 L0.730712291,3.60606711 C0.419432266,3.29435863 0.419779599,2.78932666 0.73148808,2.47804663 C0.851478785,2.35822086 1.00653578,2.27975475 1.17415043,2.25403873 L1.88441151,2.14506801 C2.41398525,2.06381897 2.87052469,1.72910913 3.10731221,1.24850386 L3.43348013,0.586484075 C3.62504482,0.197667138 4.09553709,0.0377625958 4.48435403,0.229327283 C4.63951008,0.305770511 4.76506759,0.431328017 4.84151082,0.586484075 L5.16767874,1.24850386 C5.40446626,1.72910913 5.8610057,2.06381897 6.39057945,2.14506801 L7.10084052,2.25403873 C7.53626515,2.32084309 7.83509092,2.72798013 7.76828657,3.16340476 C7.74257054,3.33101941 7.66410443,3.48607641 7.54427866,3.60606711 L7.00933575,4.14174634 C6.63661267,4.51498245 6.46607485,5.04466278 6.55101895,5.56525108 L6.67601531,6.33130372 C6.74592643,6.75976094 6.45526739,7.1637683 6.02681017,7.23367942 C5.85812052,7.26120442 5.68505586,7.23299591 5.53383802,7.15332791 L4.90220948,6.82055907 C4.42358119,6.56839729 3.85140976,6.56839729 3.37278148,6.82055907 Z" id="Star" fill="#FFFFFF"></path>
                    <path d="M3.37274698,6.13539429 L3.12857244,6.26403585 C2.85106588,6.41023813 2.50758199,6.30379499 2.36137971,6.02628842 C2.3038178,5.91703018 2.28343653,5.79198711 2.30332395,5.67010509 L2.35609887,5.34666877 C2.44104297,4.82608046 2.27050515,4.29640013 1.89778207,3.92316403 L1.67598438,3.70106104 C1.45107764,3.47584474 1.4513286,3.11094791 1.6765449,2.88604117 C1.76324086,2.79946438 1.87527298,2.74277087 1.9963783,2.72419048 L2.27507422,2.68143198 C2.80464796,2.60018294 3.2611874,2.2654731 3.49797492,1.78486783 L3.62879424,1.51934516 C3.76720399,1.23841628 4.10714511,1.12288169 4.388074,1.26129144 C4.5001777,1.31652337 4.59089579,1.40724146 4.64612772,1.51934516 L4.77694704,1.78486783 C5.01373456,2.2654731 5.470274,2.60018294 5.99984774,2.68143198 L6.27854367,2.72419048 C6.59314765,2.77245811 6.80905591,3.06662368 6.76078828,3.38122765 C6.74220788,3.50233296 6.68551437,3.61436509 6.59893759,3.70106104 L6.37713989,3.92316403 C6.00441682,4.29640013 5.833879,4.82608046 5.91882309,5.34666877 L5.97159801,5.67010509 C6.02211035,5.97967496 5.81210273,6.27157926 5.50253286,6.3220916 C5.38065083,6.34197902 5.25560777,6.32159775 5.14634952,6.26403585 L4.90217498,6.13539429 C4.4235467,5.88323251 3.85137526,5.88323251 3.37274698,6.13539429 Z" id="Star-Copy" fill="#FCCD53"></path>
                </g>
                <rect id="tab_ic_home_selected" x="0" y="0" width="30" height="30"></rect>
            </g>
        </g>
    </g>
</svg>