<?xml version="1.0" encoding="UTF-8"?>
<svg width="30px" height="30px" viewBox="0 0 30 30" version="1.1" xmlns="http://www.w3.org/2000/svg" xmlns:xlink="http://www.w3.org/1999/xlink">
    <!-- Generator: Sketch 55.2 (78181) - https://sketchapp.com -->
    <title>tab_ic_home_default</title>
    <desc>Created with Sketch.</desc>
    <g id="切图" stroke="none" stroke-width="1" fill="none" fill-rule="evenodd">
        <g id="02---Lite" transform="translate(-25.000000, -116.000000)" fill-rule="nonzero">
            <g id="分组-2-copy-2" transform="translate(25.000000, 116.000000)">
                <path d="M14.5,19 L14.5,22 L10,22 C9.44771525,22 9,22.4477153 9,23 C9,23.5522847 9.44771525,24 10,24 L21,24 C21.5522847,24 22,23.5522847 22,23 C22,22.4477153 21.5522847,22 21,22 L16.5,22 L16.5,19 C16.5,19 14.5,19 14.5,19 Z" id="Shape-Copy-3" fill="#D1D8E6"></path>
                <path d="M6,12.0462428 L6,9 C6,8.44771525 6.44771525,8 7,8 C7.55228475,8 8,8.44771525 8,9 L8,15 C6.840625,14.6021195 6,13.4287091 6,12.0462428 Z" id="Shape-path" fill="#D1D8E6"></path>
                <path d="M23,12.0462428 L23,9 C23,8.44771525 23.4477153,8 24,8 C24.5522847,8 25,8.44771525 25,9 L25,15 C23.840625,14.6021195 23,13.4287091 23,12.0462428 Z" id="Shape-path-Copy-2" fill="#D1D8E6" transform="translate(24.000000, 11.500000) scale(-1, 1) translate(-24.000000, -11.500000) "></path>
                <path d="M22,15.25 C22,16.784375 21.3533854,18.23125 20.1752604,19.315625 C18.9971354,20.403125 17.4330729,21 15.7708333,21 L15.2291667,21 C13.5669271,21 11.9994792,20.403125 10.8247396,19.315625 C9.64661458,18.228125 9,16.784375 9,15.25 L9,7 C9,6.44771525 9.44771525,6 10,6 L21,6 C21.5522847,6 22,6.44771525 22,7 L22,15.25 Z" id="Shape-path" fill="#D1D8E6"></path>
                <rect id="tab_ic_home_default" x="0" y="0" width="30" height="30"></rect>
            </g>
        </g>
    </g>
</svg>