<?xml version="1.0" encoding="UTF-8"?>
<svg width="28px" height="28px" viewBox="0 0 28 28" version="1.1" xmlns="http://www.w3.org/2000/svg" xmlns:xlink="http://www.w3.org/1999/xlink">
    <!-- Generator: Sketch 55.2 (78181) - https://sketchapp.com -->
    <title>leftbar_ic_vip</title>
    <desc>Created with Sketch.</desc>
    <g id="切图" stroke="none" stroke-width="1" fill="none" fill-rule="evenodd">
        <g id="01---导航栏" transform="translate(-190.000000, -85.000000)" fill-rule="nonzero">
            <g id="分组-4" transform="translate(190.000000, 85.000000)">
                <path d="M11.5,20 L11.5,17.5 C11.5,16.9477153 11.9477153,16.5 12.5,16.5 L13.5,16.5 C14.0522847,16.5 14.5,16.9477153 14.5,17.5 L14.5,20 L20,20 C20.5522847,20 21,20.4477153 21,21 L21,22 C21,22.5522847 20.5522847,23 20,23 L6,23 C5.44771525,23 5,22.5522847 5,22 L5,21 C5,20.4477153 5.44771525,20 6,20 L11.5,20 Z" id="合并形状" stroke="#154E9B" stroke-width="2" fill="#FFFFFF" stroke-linecap="round" stroke-linejoin="round"></path>
                <path d="M4.91141972,11.6150958 L4.91141972,8.78508277 L6.75,8.78508277 L6.75,13.6810053 C5.684198,13.4027207 4.91141972,12.5820169 4.91141972,11.6150958 Z" id="Shape-path" fill="#008EFF"></path>
                <path d="M18.9506716,13.325 C18.9506716,14.7059375 18.3729754,16.008125 17.3204189,16.9840625 C16.2678625,17.9628125 14.8705031,18.5 13.3854306,18.5 L12.9014966,18.5 C11.4164242,18.5 10.0160402,17.9628125 8.96650832,16.9840625 C7.91395188,16.0053125 7.33625567,14.7059375 7.33625567,13.325 L7.33625567,5 L18.9506716,5 L18.9506716,13.325 Z" id="Shape-path" fill="#008EFF"></path>
                <path d="M19.4994904,11.3471129 L19.4994904,8.15 L21.1549432,8.15 L21.1549432,13.6810053 C20.1952979,13.3666225 19.4994904,12.4394598 19.4994904,11.3471129 Z" id="Shape-path-Copy-2" fill="#008EFF" transform="translate(20.327217, 10.915503) scale(-1, 1) translate(-20.327217, -10.915503) "></path>
                <path d="M18.7494904,13.325 C18.7494904,14.7059375 18.1899455,16.008125 17.1704604,16.9840625 C16.1509753,17.9628125 14.797521,18.5 13.3591096,18.5 L12.8903808,18.5 C11.4519694,18.5 10.0955855,17.9628125 9.07903004,16.9840625 C8.05954497,16.0053125 7.5,14.7059375 7.5,13.325 L7.5,6 C7.5,5.44771525 7.94771525,5 8.5,5 L17.7494904,5 C18.3017752,5 18.7494904,5.44771525 18.7494904,6 L18.7494904,13.325 Z" id="Shape-path" stroke="#154E9B" stroke-width="1.5"></path>
                <path d="M7,8 L7,6 C7,5.44771525 7.44771525,5 8,5 L18,5 C18.5522847,5 19,5.44771525 19,6 L19,8 L20.8693382,8 C21.4937855,8 22,8.48282951 22,9.07842989 L22,10.8051645 C22,11.7040324 21.0143639,13.4330299 18.9929402,13.902568 C18.9229621,15.2339816 18.3347126,16.4795014 17.315625,17.4279167 C16.228125,18.4429167 14.784375,19 13.25,19 L12.75,19 C11.215625,19 9.76875,18.4429167 8.684375,17.4279167 C7.66312209,16.4747473 7.07454015,15.2283538 7.00662075,13.8940497 C4.9854934,13.425033 4,11.6986859 4,10.8011646 L4,9 C4,8.44771525 4.44771525,8 5,8 L7,8 Z" id="合并形状" stroke="#154E9B" stroke-width="2" stroke-linecap="round"></path>
                <path d="M12.8848682,13.7462344 L12.404397,13.9954119 C11.7766184,14.3209846 11.0037744,14.0759984 10.6782017,13.4482197 C10.5508145,13.2025881 10.5064214,12.9223009 10.5516695,12.6493266 L10.6401776,12.1153713 C10.6534715,12.0351715 10.6269399,11.9535158 10.5690447,11.8964468 L10.1835891,11.5164916 C9.67995678,11.0200462 9.67413067,10.209323 10.1705761,9.70569064 C10.3648209,9.50863388 10.6176716,9.3798 10.891268,9.33847976 L11.4264402,9.25765472 C11.5068228,9.24551485 11.5762833,9.19504885 11.6126685,9.12235194 L11.854915,8.63834925 C12.1714318,8.00595638 12.940675,7.74988817 13.5730679,8.0664049 C13.8205049,8.19024874 14.0211684,8.39091222 14.1450122,8.63834925 L14.3872587,9.12235194 C14.423644,9.19504885 14.4931045,9.24551485 14.573487,9.25765472 L15.1086592,9.33847976 C15.8079096,9.44408491 16.2891542,10.0965493 16.183549,10.7957997 C16.1422288,11.0693961 16.0133949,11.3222469 15.8163381,11.5164916 L15.4308825,11.8964468 C15.3729873,11.9535158 15.3464558,12.0351715 15.3597496,12.1153713 L15.4482577,12.6493266 C15.5639015,13.346987 15.0920838,14.0063004 14.3944234,14.1219442 C14.121449,14.1671922 13.8411618,14.1227991 13.5955302,13.9954119 L13.115059,13.7462344 C13.0428926,13.7088081 12.9570347,13.7088081 12.8848682,13.7462344 Z" id="Star-Copy" stroke="#154E9B" stroke-width="1.5" fill="#FFFFFF"></path>
                <rect id="leftbar_ic_vip" x="0" y="0" width="28" height="28"></rect>
            </g>
        </g>
    </g>
</svg>