<?xml version="1.0" encoding="UTF-8"?>
<svg width="28px" height="28px" viewBox="0 0 28 28" version="1.1" xmlns="http://www.w3.org/2000/svg" xmlns:xlink="http://www.w3.org/1999/xlink">
    <!-- Generator: Sketch 55.2 (78181) - https://sketchapp.com -->
    <title>leftbar_ic_games</title>
    <desc>Created with Sketch.</desc>
    <g id="切图" stroke="none" stroke-width="1" fill="none" fill-rule="evenodd">
        <g id="01---导航栏" transform="translate(-282.000000, -85.000000)" fill-rule="nonzero">
            <g id="编组-4" transform="translate(282.000000, 85.000000)">
                <g id="编组-10" transform="translate(3.000000, 4.000000)">
                    <path d="M7,4 L13,4 C14.4132836,4 15.6621559,4.30668324 16.699193,4.87262573 C17.73623,5.43856823 18.5614318,6.26376998 19.1273743,7.30080702 C19.6933168,8.33784406 20,9.58671638 20,11 C20,12.4132836 19.6933168,13.6621559 19.1273743,14.699193 C18.5614318,15.73623 17.73623,16.5614318 16.699193,17.1273743 C15.6621559,17.6933168 14.4132836,18 13,18 L7,18 C5.58671638,18 4.33784406,17.6933168 3.30080702,17.1273743 C2.26376998,16.5614318 1.43856823,15.73623 0.872625732,14.699193 C0.306683236,13.6621559 1.11844987e-16,12.4132836 -6.123234e-17,11 C-1.11844987e-16,9.58671638 0.306683236,8.33784406 0.872625732,7.30080702 C1.43856823,6.26376998 2.26376998,5.43856823 3.30080702,4.87262573 C4.33784406,4.30668324 5.58671638,4 7,4 Z" id="矩形" fill="#008EFF"></path>
                    <path d="M8,4 L14,4 C17.8659932,4 21,7.13400675 21,11 C21,14.8659932 17.8659932,18 14,18 L8,18 C4.13400675,18 1,14.8659932 1,11 C1,7.13400675 4.13400675,4 8,4 Z" id="矩形" stroke="#154E9B" stroke-width="2"></path>
                    <path d="M10,3.67973868 C10,2.40021338 10.1332252,1.93622658 10.3833941,1.46845126 C10.6335631,1.00067593 11.0006759,0.633563116 11.4684513,0.383394133 C11.9362266,0.133225151 12.4002134,-1.02140518e-14 13.6797387,-1.02140518e-14 C14.3031437,-1.02140518e-14 14.7706975,-1.02140518e-14 15.0824,-1.02140518e-14" id="路径" stroke="#154E9B" stroke-width="2" stroke-linecap="round" stroke-linejoin="round"></path>
                    <g id="分组" transform="translate(4.000000, 7.547973)" stroke="#154E9B" stroke-linecap="round" stroke-linejoin="round" stroke-width="1.5">
                        <path d="M0.875131638,3.58682419 L5.08849668,3.58682419" id="直线"></path>
                        <path d="M0.875131638,3.58682419 L5.08849668,3.58682419" id="直线-copy" transform="translate(3.000000, 3.586824) rotate(-90.000000) translate(-3.000000, -3.586824) "></path>
                    </g>
                    <circle id="椭圆形-copy" stroke="#154E9B" stroke-width="1.5" fill="#FFFFFF" cx="15.0067296" cy="11.0479732" r="2.34759334"></circle>
                </g>
                <rect id="leftbar_ic_games" x="0" y="0" width="28" height="28"></rect>
            </g>
        </g>
    </g>
</svg>