<?xml version="1.0" encoding="UTF-8"?>
<svg width="22px" height="22px" viewBox="0 0 22 22" version="1.1" xmlns="http://www.w3.org/2000/svg" xmlns:xlink="http://www.w3.org/1999/xlink">
    <!-- Generator: Sketch 52.6 (67491) - http://www.bohemiancoding.com/sketch -->
    <title>content_ic_down</title>
    <desc>Created with Sketch.</desc>
    <g id="切图" stroke="none" stroke-width="1" fill="none" fill-rule="evenodd" opacity="0.7">
        <g id="06---应用详情页" transform="translate(-48.000000, -75.000000)">
            <g id="ic_more-copy-4" transform="translate(59.000000, 86.000000) rotate(-90.000000) translate(-59.000000, -86.000000) translate(48.000000, 75.000000)">
                <path d="M11.1631579,17.4368421 L18.7184211,17.4368421 C19.1500752,17.4368421 19.5,17.7867669 19.5,18.2184211 C19.5,18.6500752 19.1500752,19 18.7184211,19 L10.3815789,19 C9.94992481,19 9.6,18.6500752 9.6,18.2184211 L9.6,9.88157895 C9.6,9.44992481 9.94992481,9.1 10.3815789,9.1 C10.8132331,9.1 11.1631579,9.44992481 11.1631579,9.88157895 L11.1631579,17.4368421 Z" id="Rectangle-12" stroke="#D1D8E6" stroke-width="0.5" fill="#D1D8E6" fill-rule="nonzero" transform="translate(14.550000, 14.050000) rotate(45.000000) translate(-14.550000, -14.050000) "></path>
                <rect id="content_ic_down" fill-opacity="0" fill="#4A90E2" x="0" y="0" width="22" height="22"></rect>
            </g>
        </g>
    </g>
</svg>