<?xml version="1.0" encoding="UTF-8"?>
<svg width="26px" height="26px" viewBox="0 0 26 26" version="1.1" xmlns="http://www.w3.org/2000/svg" xmlns:xlink="http://www.w3.org/1999/xlink">
    <!-- Generator: Sketch 55.2 (78181) - https://sketchapp.com -->
    <title>home_ic_hot</title>
    <desc>Created with Sketch.</desc>
    <g id="切图" stroke="none" stroke-width="1" fill="none" fill-rule="evenodd">
        <g id="02---首页" transform="translate(-253.000000, -173.000000)" fill-rule="nonzero">
            <g id="分组-14-copy" transform="translate(253.000000, 173.000000)">
                <g id="分组-13" transform="translate(4.642857, 2.785714)">
                    <path d="M15.1152699,9.1110297 C14.6780235,8.12544247 14.0524249,7.2523652 13.2564123,6.51880027 L12.6039062,5.9179971 C12.5074878,5.83248953 12.3550122,5.87074292 12.3124087,5.99225367 L12.0209111,6.83157796 C11.8392857,7.35812456 11.5051847,7.89592216 11.0320617,8.42471896 C11.0006696,8.45847195 10.964793,8.46747274 10.9401278,8.46972294 C10.9154627,8.47197314 10.8773437,8.46747274 10.8437094,8.43596996 C10.8123174,8.40896757 10.7966213,8.36846398 10.7988636,8.3279604 C10.8818283,6.9733405 10.4782163,5.44545527 9.59475446,3.7825581 C8.86376826,2.40093581 9.61045049,2.52087578 8.34131494,1.76930926 L7.41524959,1.22251086 C7.29416599,1.15050449 8.17125987,2.14927175 8.17798674,2.2910343 C7.64707242,1.79899075 7.3928267,1.79899075 7.41524959,2.2910343 C7.44888393,3.02909962 7.14393263,3.85749408 6.94212662,4.39979207 C6.69547484,5.06360083 6.34119318,5.68015539 5.88825081,6.23370439 C5.56984578,6.62073864 5.21332183,6.96951951 4.82316356,7.2710462 C3.8791599,7.99786053 3.10108563,8.94519437 2.57414773,10.0050382 C2.04272524,11.076133 1.76243912,12.2754891 1.76243912,13.4770955 C1.76243912,14.5391895 1.970972,15.5675305 2.38355317,16.5373663 C2.7826806,17.471199 3.352222,18.3127735 4.07648133,19.0328372 C4.80298295,19.7529009 3.88364448,19.1221658 4.82316356,19.5159506 C5.79631696,19.9254869 6.82776989,20.1325052 7.89285714,20.1325052 C8.9579444,20.1325052 9.98939732,19.9254869 10.9625507,19.5182008 C11.9020698,19.124416 12.7474127,18.559616 13.4716721,17.837302 C14.1981737,17.1172383 14.7677151,16.2756638 15.1646002,15.3418312 C15.5771814,14.3719953 15.7857143,13.3436543 15.7857143,12.2815603 C15.7857143,11.1834631 15.5614854,10.1168687 15.1152699,9.1110297 Z" id="Combined-Shape-Copy-2" fill="#008EFF"></path>
                    <path d="M11.2945907,14.1386068 C11.0693426,13.6980791 10.7470645,13.3078401 10.3369974,12.9799588 L10.0008579,12.711418 C9.95118781,12.6731987 9.87263975,12.6902968 9.8506925,12.7446084 L9.70052708,13.1197609 C9.60696248,13.3551113 9.43484982,13.5954905 9.1911198,13.8318467 C9.17494814,13.8469332 9.15646625,13.8509563 9.14375994,13.8519621 C9.13105364,13.8529679 9.11141662,13.8509563 9.09408984,13.8368755 C9.07791818,13.8248063 9.06983235,13.8067024 9.07098747,13.7885985 C9.11372686,13.1831245 8.90580552,12.5002061 8.45068881,11.7569414 C8.07412016,11.1393981 7.55085145,10.6576339 6.89705435,10.3217065 L6.41999039,10.0773041 C6.35761398,10.0451195 6.2779108,10.0873618 6.28137616,10.1507254 L6.30678877,10.6334954 C6.32411555,10.9633882 6.28022104,11.2550618 6.17626037,11.4974526 C6.04919733,11.794155 5.8666886,12.0697362 5.63335465,12.3171558 C5.46932782,12.4901484 5.28566397,12.6460429 5.08467334,12.7808161 C4.59836842,13.1056801 4.19754229,13.5291096 3.92608943,14.0028277 C3.65232633,14.4815746 3.50793651,15.0176505 3.50793651,15.5547321 C3.50793651,16.0294559 3.61536253,16.4890932 3.82790435,16.9225804 C4.03351545,17.3399753 4.32691556,17.7161336 4.70001886,18.0379803 C5.07427727,18.359827 5.50860185,18.6132812 5.99259652,18.7892911 C6.49391797,18.9723414 7.02527251,19.0648723 7.57395382,19.0648723 C8.12263514,19.0648723 8.65398967,18.9723414 9.15531113,18.7902969 C9.6393058,18.614287 10.0747855,18.3618385 10.4478888,18.0389861 C10.8221472,17.7171394 11.1155473,17.3409811 11.3200033,16.9235862 C11.5325451,16.490099 11.6399711,16.0304617 11.6399711,15.5557379 C11.6399711,15.0649217 11.5244593,14.5881863 11.2945907,14.1386068 Z" id="Shape-Copy-9" stroke="#154E9B" stroke-width="1.5" fill="#FCCD53"></path>
                    <path d="M4.37671329,18.6873466 C3.61504041,18.3227976 2.92351184,17.8424768 2.31404221,17.2579542 C1.58978287,16.5611899 1.02024148,15.7468467 0.621114042,14.8432305 C0.208532873,13.9047761 -8.8817842e-15,12.9097096 -8.8817842e-15,11.8819823 C-8.8817842e-15,10.719257 0.28028612,9.55870899 0.811708604,8.52227214 C1.33864651,7.49672223 2.11672078,6.58004174 3.06072443,5.87674531 C3.45088271,5.58497527 3.80740666,5.24748008 4.12581169,4.87296928 C4.57875406,4.33733175 4.93303571,3.74072735 5.1796875,3.09839779 C5.38149351,2.5736472 5.46670049,1.94220458 5.43306615,1.2280212 L5.3837358,0.182874798 C5.37700893,0.0456993325 5.53172687,-0.0457509778 5.65281047,0.0239254491 L6.5717092,0.375078078 C7.88569054,1.05006846 9.23422463,2.18619861 9.96521083,3.52311505 C10.8486727,5.13220503 11.0333269,6.4429542 10.9503622,7.75374198 C10.9481199,7.79293497 10.9638159,7.83212796 10.995208,7.85825662 C11.0288423,7.88874005 11.0669612,7.89309483 11.0916264,7.89091744 C11.1162916,7.88874005 11.1521682,7.8800305 11.1835602,7.84736967 C11.6566832,7.33568341 11.9907843,6.8152876 12.1724097,6.30577873 L12.4639072,5.49361288 C12.5065107,5.37603391 12.6589864,5.33901831 12.7554048,5.42175906 L13.4079109,6.00312175 C14.2039235,6.71295035 14.7508804,7.56536498 15.1646002,8.62784257 C15.5783201,9.69032016 15.7857143,10.8215942 15.7857143,11.8841597 C15.7857143,12.911887 15.5771814,13.9069535 15.1646002,14.8454079 C14.7677151,15.749024 14.1981737,16.5633673 13.4716721,17.2601315 C12.7474127,17.9590732 11.9020698,18.5055977 10.9625507,18.8866406 C10.6363451,19.0187473 10.3035888,19.1290795 9.96521083,19.2173913 C8.88025879,19.3890947 7.88151545,19.4297867 6.96898079,19.3394671 C6.05644614,19.2491476 5.19235697,19.0317741 4.37671329,18.6873466 Z" id="路径-copy" stroke="#154E9B" stroke-width="2" stroke-linecap="round" stroke-linejoin="round"></path>
                </g>
                <rect id="home_ic_hot" x="0" y="0" width="26" height="26"></rect>
            </g>
        </g>
    </g>
</svg>