<?xml version="1.0" encoding="UTF-8"?>
<svg width="16px" height="16px" viewBox="0 0 16 16" version="1.1" xmlns="http://www.w3.org/2000/svg" xmlns:xlink="http://www.w3.org/1999/xlink">
    <!-- Generator: Sketch 55.2 (78181) - https://sketchapp.com -->
    <title>home_ic_close</title>
    <desc>Created with Sketch.</desc>
    <g id="F---iOS-13" stroke="none" stroke-width="1" fill="none" fill-rule="evenodd">
        <g id="加提示样式" transform="translate(-339.000000, -191.000000)">
            <g id="编组-13" transform="translate(0.000000, 183.000000)">
                <g id="编组-12" transform="translate(339.000000, 8.000000)">
                    <g id="编组-10" transform="translate(1.677333, 1.756280)" fill="#BEC3CF" fill-opacity="0.88">
                        <path d="M6.44042938,-1.29033985 C6.99271413,-1.29033985 7.44042938,-0.8426246 7.44042938,-0.290339851 L7.44042938,13.0133039 C7.44042938,13.5655886 6.99271413,14.0133039 6.44042938,14.0133039 C5.88814463,14.0133039 5.44042938,13.5655886 5.44042938,13.0133039 L5.44042938,-0.290339851 C5.44042938,-0.8426246 5.88814463,-1.29033985 6.44042938,-1.29033985 Z" id="矩形" transform="translate(6.440429, 6.361482) rotate(-315.000000) translate(-6.440429, -6.361482) "></path>
                        <path d="M6.44042938,-1.29033985 C6.99271413,-1.29033985 7.44042938,-0.8426246 7.44042938,-0.290339851 L7.44042938,13.0133039 C7.44042938,13.5655886 6.99271413,14.0133039 6.44042938,14.0133039 C5.88814463,14.0133039 5.44042938,13.5655886 5.44042938,13.0133039 L5.44042938,-0.290339851 C5.44042938,-0.8426246 5.88814463,-1.29033985 6.44042938,-1.29033985 Z" id="矩形" transform="translate(6.440429, 6.361482) rotate(-405.000000) translate(-6.440429, -6.361482) "></path>
                    </g>
                    <rect id="home_ic_close" x="0" y="0" width="16" height="16"></rect>
                </g>
            </g>
        </g>
    </g>
</svg>