<?xml version="1.0" encoding="UTF-8"?>
<svg width="16px" height="16px" viewBox="0 0 16 16" version="1.1" xmlns="http://www.w3.org/2000/svg" xmlns:xlink="http://www.w3.org/1999/xlink">
    <!-- Generator: Sketch 55.2 (78181) - https://sketchapp.com -->
    <title>home_ic_announcement</title>
    <desc>Created with Sketch.</desc>
    <g id="F---iOS-13" stroke="none" stroke-width="1" fill="none" fill-rule="evenodd">
        <g id="加提示样式" transform="translate(-20.000000, -191.000000)">
            <g id="编组-13" transform="translate(0.000000, 183.000000)">
                <g id="Group-4" transform="translate(20.000000, 8.000000)">
                    <g id="Group-3" transform="translate(1.000000, 2.000000)" fill="#0084F0" fill-opacity="0.5" fill-rule="nonzero">
                        <path d="M2.05596128,3.13745143 C1.50985475,3.13145235 0.98401379,3.31838354 0.597169607,3.65603724 C0.210325424,3.99369095 -0.00490179144,4.4535949 8.47577156e-05,4.93190602 L8.47577156e-05,7.2820973 C-0.0046650233,7.7602761 0.210666677,8.21998097 0.597484688,8.55746761 C0.9843027,8.89495424 1.51000789,9.08178092 2.05596128,9.07578536 L2.10322281,9.09954789 L2.15310998,9.12101083 L5.37914697,11.7824147 C5.75548877,12.089028 6.19834681,12.25 6.65958433,12.25 C7.11206971,12.25 7.53742347,12.0959268 7.85862683,11.8146091 C8.19558403,11.5187272 8.3820045,11.1047992 8.3820045,10.6494783 L8.3820045,1.64117831 C8.3820045,1.15442963 8.19908488,0.736668946 7.85162512,0.433121736 C7.53076928,0.153406958 7.09565748,-0.00250257791 6.64295527,0 C6.18784425,0 5.75023749,0.150270926 5.37389568,0.431588669 L2.15310998,3.09299249 L2.05596128,3.13745143 Z M6.96415863,10.5712919 C6.96415863,10.8464774 6.77598772,10.9721889 6.60182023,10.9721889 C6.48253923,10.9685994 6.37005843,10.9226633 6.29024423,10.8449444 L2.57933896,7.83553438 L2.0568365,7.83553438 C1.68224512,7.83553438 1.4223067,7.60787398 1.4223067,7.2820973 L1.4223067,4.93190602 C1.4223067,4.60612934 1.68224512,4.37846894 2.0568365,4.37846894 L2.58021417,4.37846894 L6.29111944,1.36905897 C6.37093364,1.29133999 6.48341445,1.24540395 6.60269545,1.24181443 C6.85125608,1.24181443 6.96503384,1.44954497 6.96503384,1.64271138 L6.96503384,10.5712919 L6.96415863,10.5712919 Z M13.2902018,2.30499572 C13.1020322,2.30479274 12.9214899,2.37011813 12.7883518,2.48658003 C12.6552136,2.60304193 12.5804037,2.76108452 12.5804037,2.92588822 L12.5804037,9.2881151 C12.5804037,9.58706311 12.8517199,9.90900712 13.2902018,9.90900712 C13.7278086,9.90900712 14,9.58706311 14,9.2881151 L14,2.92588822 C14,2.62694021 13.7286838,2.30499572 13.2910771,2.30499572 L13.2902018,2.30499572 Z M10.5227767,3.92084662 C10.1312494,3.92084662 9.8138538,4.19883135 9.8138538,4.54174054 L9.8138538,7.67456238 C9.8138538,8.01789492 10.1316413,8.29622093 10.523652,8.29622093 C10.9156626,8.29622093 11.2334501,8.01789492 11.2334501,7.67456238 L11.2334501,4.54097401 C11.2332184,4.37617011 11.1581858,4.21820809 11.0248833,4.10188991 C10.8915809,3.98557174 10.7109463,3.92044147 10.5227767,3.92084662 Z" id="Shape"></path>
                    </g>
                    <rect id="home_ic_announcement" x="0" y="0" width="16" height="16"></rect>
                </g>
            </g>
        </g>
    </g>
</svg>