<?xml version="1.0" encoding="UTF-8"?>
<svg width="16px" height="22px" viewBox="0 0 16 22" version="1.1" xmlns="http://www.w3.org/2000/svg" xmlns:xlink="http://www.w3.org/1999/xlink">
    <!-- Generator: Sketch 55.2 (78181) - https://sketchapp.com -->
    <title>nav_ic_download</title>
    <desc>Created with Sketch.</desc>
    <g id="切图" stroke="none" stroke-width="1" fill="none" fill-rule="evenodd">
        <g id="01---导航栏" transform="translate(-325.000000, -20.000000)">
            <g id="分组-3" transform="translate(325.000000, 20.000000)">
                <g id="分组-5">
                    <path d="M3.8458278,-1.55376046e-16 L12.1541722,1.55376046e-16 C13.4914503,-9.02779573e-17 13.9763797,0.139238417 14.4652686,0.400699056 C14.9541574,0.662159695 15.3378403,1.04584256 15.5993009,1.53473144 C15.8607616,2.02362033 16,2.50854969 16,3.8458278 L16,18.1541722 C16,19.4914503 15.8607616,19.9763797 15.5993009,20.4652686 C15.3378403,20.9541574 14.9541574,21.3378403 14.4652686,21.5993009 C13.9763797,21.8607616 13.4914503,22 12.1541722,22 L3.8458278,22 C2.50854969,22 2.02362033,21.8607616 1.53473144,21.5993009 C1.04584256,21.3378403 0.662159695,20.9541574 0.400699056,20.4652686 C0.139238417,19.9763797 6.01853049e-17,19.4914503 -1.03584031e-16,18.1541722 L1.03584031e-16,3.8458278 C-6.01853049e-17,2.50854969 0.139238417,2.02362033 0.400699056,1.53473144 C0.662159695,1.04584256 1.04584256,0.662159695 1.53473144,0.400699056 C2.02362033,0.139238417 2.50854969,9.02779573e-17 3.8458278,-1.55376046e-16 Z" id="矩形" fill="#A9C8FF" fill-rule="nonzero"></path>
                    <path d="M0,12 L16,12 L16,18.1541722 C16,19.4914503 15.8607616,19.9763797 15.5993009,20.4652686 C15.3378403,20.9541574 14.9541574,21.3378403 14.4652686,21.5993009 C13.9763797,21.8607616 13.4914503,22 12.1541722,22 L3.8458278,22 C2.50854969,22 2.02362033,21.8607616 1.53473144,21.5993009 C1.04584256,21.3378403 0.662159695,20.9541574 0.400699056,20.4652686 C0.139238417,19.9763797 6.01853049e-17,19.4914503 -1.03584031e-16,18.1541722 L0,12 Z" id="矩形" fill="#568DED" fill-rule="nonzero"></path>
                    <text id="APP" font-family="DIN-Bold, DIN" font-size="6" font-weight="bold" letter-spacing="0.2181817" fill="#FFFFFF" fill-opacity="0.8">
                        <tspan x="2.13333333" y="19">APP</tspan>
                    </text>
                    <g id="分组-2" transform="translate(4.266667, 3.000000)" fill-rule="nonzero" stroke="#2367DC" stroke-linecap="round" stroke-linejoin="round" stroke-width="1.5">
                        <path d="M3.73333333,0.402428839 L3.73333333,6.81909551" id="直线-6"></path>
                        <polyline id="路径-3" points="0 3.5 3.73333333 7 7.46666667 3.5"></polyline>
                    </g>
                </g>
                <rect id="nav_ic_download" fill-rule="nonzero" x="0" y="0" width="16" height="22"></rect>
            </g>
        </g>
    </g>
</svg>