<?xml version="1.0" encoding="UTF-8"?>
<svg width="116px" height="28px" viewBox="0 0 116 28" version="1.1" xmlns="http://www.w3.org/2000/svg" xmlns:xlink="http://www.w3.org/1999/xlink">
    <!-- Generator: Sketch 55.2 (78181) - https://sketchapp.com -->
    <title>nav_ic_logo_english</title>
    <desc>Created with Sketch.</desc>
    <defs>
        <circle id="path-1" cx="12" cy="12" r="12"></circle>
    </defs>
    <g id="切图" stroke="none" stroke-width="1" fill="none" fill-rule="evenodd">
        <g id="01---导航栏" transform="translate(-193.000000, -17.000000)">
            <g id="分组-14" transform="translate(193.000000, 17.000000)">
                <g id="Group-4-Copy-3" transform="translate(0.000000, 2.000000)">
                    <mask id="mask-2" fill="white">
                        <use xlink:href="#path-1"></use>
                    </mask>
                    <use id="Mask" fill="#20294A" xlink:href="#path-1"></use>
                    <g id="Group-9" mask="url(#mask-2)">
                        <g transform="translate(3.891892, 2.108108)">
                            <g id="Group-4-Copy" stroke-width="1" fill="none" transform="translate(8.061129, 12.443939) scale(-1, 1) translate(-8.061129, -12.443939) translate(0.034102, 0.119615)">
                                <path d="M11.9603978,7.75574744 C10.4239891,8.04665686 9.5181983,8.4683919 9.24302542,9.02095255 L8.52150504,8.4919832 L10.0040562,7.08908728 L11.5134433,7.2947435 L11.9603978,7.75574744 Z" id="Path-3" fill="#E797A2"></path>
                                <path d="M1.44054409,22.623184 C1.99353427,23.8834439 2.4424747,24.5193721 2.78736539,24.5309685 C3.13225608,24.5425649 3.3871341,24.3156219 3.55199943,23.8501396 C3.71791754,23.2146711 3.75939706,22.470557 3.67643801,21.6177974 C3.59347895,20.7650378 2.84818098,21.1001667 1.44054409,22.623184 Z" id="Path-12-Copy" stroke="#6D3856" stroke-width="2" transform="translate(2.579231, 22.845028) scale(-1, 1) translate(-2.579231, -22.845028) "></path>
                                <path d="M7.93142496,11.4954881 C8.12299329,11.3658035 8.34643022,11.3225753 8.60173575,11.3658035 C8.85704129,11.4090317 8.9510956,11.5711285 8.88389867,11.8520938" id="Path-7" stroke="#979797"></path>
                                <path d="M4.09590444,10.4715284 C4.33184272,10.3092879 4.56100422,10.2402413 4.78338897,10.2643888 C5.00577372,10.2885362 5.1169661,10.4304023 5.1169661,10.6899871" id="Path-9" stroke="#979797"></path>
                                <path d="M14.6352397,4.88190187 C15.4449194,5.15431247 16.0324496,5.96708253 16.0324496,6.92738545 C16.0324496,8.11088941 15.1400629,9.07030893 14.0392481,9.07030893 C13.3979653,9.07030893 12.8274163,8.74471277 12.4628195,8.238896 C11.8447208,7.6562529 10.1274631,6.6642179 8.59478579,8.54388362 C8.27452687,8.36821814 8.08901114,8.28132157 8.03823858,8.28319389 C7.98746603,8.28506622 7.91907926,8.23731525 7.83307828,8.13994099 C9.3356392,5.33442598 11.2854217,4.15649 13.6824257,4.60613305 C14.0521465,4.67548729 14.3697512,4.76741023 14.6352397,4.88190187 Z" id="Combined-Shape" fill="#FFFFFF"></path>
                                <path d="M5.33690306,3.65921677 C5.31192112,3.64831188 5.28760749,3.63729372 5.26407341,3.62626039 C4.60970278,3.3194763 4.21296839,2.70155887 4.21296839,1.92791964 C4.21296839,0.863500944 5.07143585,0.000619100121 6.13040913,0.000619100121 C6.14503667,0.000619100121 6.15962595,0.000783735728 6.17417524,0.00111126399 L6.17442959,0 C8.62858857,0.0317338176 10.4157693,2.34319846 11.5359719,6.93439394 L9.06132053,7.14942939 C8.64461526,5.72984496 7.4030262,4.56695008 5.33655334,3.66074476 L5.33690306,3.65921677 Z" id="Combined-Shape-Copy" fill="#FFFFFF" transform="translate(7.874470, 3.574715) scale(-1, 1) translate(-7.874470, -3.574715) "></path>
                                <path d="M10.799605,9.86244123 C11.9206463,12.059009 11.8621394,13.7557259 10.6240846,14.9525918 C10.0849417,15.4531595 9.21888542,15.8298438 8.02591582,16.0826449 C6.61368563,22.6943421 5.5775556,23.3621785 4.22937595,23.3063626 C2.8811963,23.2505466 1.7446794,22.8042145 0.819825249,21.9673663 C0.696310841,21.5095973 0.696310841,21.0159048 0.819825249,20.4862886 C0.943339656,19.9566725 1.37321443,18.1121069 2.10944956,14.9525918 C0.216013256,14.1402729 -0.392393764,12.4787435 0.284228503,9.96800363 C0.936872661,8.3394942 1.86837096,7.38500536 3.07872341,7.10453708 C4.89425209,6.68383466 9.11804322,6.56758961 10.799605,9.86244123 Z" id="Path-5" fill="#FFFFFF"></path>
                            </g>
                            <path d="M5.99073004,17.6181841 C5.85676893,17.5036464 5.77178491,17.3329565 5.77178491,17.1423123 C5.77178491,16.7974452 6.04988001,16.5178752 6.39292769,16.5178752 C6.40323254,16.5178752 6.41347877,16.5181275 6.42366062,16.5186262 C6.49897311,16.5152328 6.58069143,16.5233395 6.66881558,16.5429463 C7.05611214,16.6291163 7.72648466,16.6291163 8.67993314,16.5429463 L9.05678034,16.9508158 C9.53834455,17.8931843 9.49989784,18.3684194 8.94144023,18.3765213 C8.1037538,18.3886741 7.72184326,18.3765213 6.66881558,18.0103614 C6.35539168,17.9013773 6.12936316,17.7706515 5.99073004,17.6181841 Z" id="Combined-Shape" fill="#FFFFFF"></path>
                        </g>
                    </g>
                </g>
                <path d="M41.66,8.47 L37.348,8.47 L37.348,22 L34.972,22 L34.972,8.47 L30.66,8.47 L30.66,6.336 L41.66,6.336 L41.66,8.47 Z M52.3089565,22 L50.1089565,22 L50.1089565,20.878 C49.3389565,21.714 48.2609565,22.132 47.1389565,22.132 C45.9949565,22.132 45.0489565,21.758 44.3889565,21.12 C43.5309565,20.284 43.2669565,19.228 43.2669565,17.974 L43.2669565,10.846 L45.5109565,10.846 L45.5109565,17.644 C45.5109565,19.382 46.5009565,20.13 47.7549565,20.13 C49.0089565,20.13 50.0649565,19.36 50.0649565,17.644 L50.0649565,10.846 L52.3089565,10.846 L52.3089565,22 Z M60.823913,22 L59.481913,22 C57.391913,22 56.423913,20.504 56.423913,18.898 L56.423913,12.76 L55.147913,12.76 L55.147913,11.044 L56.423913,11.044 L56.423913,7.656 L58.667913,7.656 L58.667913,11.044 L60.823913,11.044 L60.823913,12.76 L58.667913,12.76 L58.667913,18.788 C58.667913,19.602 59.063913,20.086 59.899913,20.086 L60.823913,20.086 L60.823913,22 Z M72.9028695,22 L70.7028695,22 L70.7028695,20.878 C69.9328695,21.714 68.8548695,22.132 67.7328695,22.132 C66.5888695,22.132 65.6428695,21.758 64.9828695,21.12 C64.1248695,20.284 63.8608695,19.228 63.8608695,17.974 L63.8608695,10.846 L66.1048695,10.846 L66.1048695,17.644 C66.1048695,19.382 67.0948695,20.13 68.3488695,20.13 C69.6028695,20.13 70.6588695,19.36 70.6588695,17.644 L70.6588695,10.846 L72.9028695,10.846 L72.9028695,22 Z M88.545826,22 L86.015826,22 L84.937826,18.854 L78.755826,18.854 L77.677826,22 L75.147826,22 L80.889826,6.336 L82.803826,6.336 L88.545826,22 Z M84.277826,16.83 L81.901826,9.878 L79.459826,16.83 L84.277826,16.83 Z M99.9207825,16.412 C99.9207825,18.106 99.7887825,20.02 98.6667825,21.142 C98.0507825,21.758 97.0827825,22.132 95.9607825,22.132 C94.7727825,22.132 93.8487825,21.824 93.0347825,20.856 L93.0347825,26.51 L90.7907825,26.51 L90.7907825,10.846 L92.9907825,10.846 L92.9907825,12.034 C93.8267825,11.022 94.7287825,10.714 95.9387825,10.714 C97.0607825,10.714 98.0507825,11.088 98.6667825,11.704 C99.7887825,12.826 99.9207825,14.718 99.9207825,16.412 Z M97.6767825,16.412 C97.6767825,14.432 97.3907825,12.716 95.3667825,12.716 C93.3427825,12.716 93.0347825,14.432 93.0347825,16.412 C93.0347825,18.392 93.3427825,20.13 95.3667825,20.13 C97.3907825,20.13 97.6767825,18.392 97.6767825,16.412 Z M112.373739,16.412 C112.373739,18.106 112.241739,20.02 111.119739,21.142 C110.503739,21.758 109.535739,22.132 108.413739,22.132 C107.225739,22.132 106.301739,21.824 105.487739,20.856 L105.487739,26.51 L103.243739,26.51 L103.243739,10.846 L105.443739,10.846 L105.443739,12.034 C106.279739,11.022 107.181739,10.714 108.391739,10.714 C109.513739,10.714 110.503739,11.088 111.119739,11.704 C112.241739,12.826 112.373739,14.718 112.373739,16.412 Z M110.129739,16.412 C110.129739,14.432 109.843739,12.716 107.819739,12.716 C105.795739,12.716 105.487739,14.432 105.487739,16.412 C105.487739,18.392 105.795739,20.13 107.819739,20.13 C109.843739,20.13 110.129739,18.392 110.129739,16.412 Z" id="TutuApp" fill="#374D73" fill-rule="nonzero"></path>
                <rect id="nav_ic_logo_english" fill-rule="nonzero" x="0" y="0" width="116" height="28"></rect>
            </g>
        </g>
    </g>
</svg>