<?xml version="1.0" encoding="UTF-8"?>
<svg width="54px" height="54px" viewBox="0 0 54 54" version="1.1" xmlns="http://www.w3.org/2000/svg" xmlns:xlink="http://www.w3.org/1999/xlink">
    <!-- Generator: Sketch 55.2 (78181) - https://sketchapp.com -->
    <title>news_ic_new</title>
    <desc>Created with Sketch.</desc>
    <defs>
        <linearGradient x1="36.604562%" y1="0%" x2="66.9202637%" y2="100%" id="linearGradient-1">
            <stop stop-color="#78ACFF" offset="0%"></stop>
            <stop stop-color="#2681FF" offset="100%"></stop>
        </linearGradient>
        <linearGradient x1="75.9067612%" y1="51.4268406%" x2="22.2069702%" y2="47.46875%" id="linearGradient-2">
            <stop stop-color="#DEECFF" offset="0%"></stop>
            <stop stop-color="#FFFFFF" offset="100%"></stop>
        </linearGradient>
        <linearGradient x1="46.9785427%" y1="107.849685%" x2="37.1320795%" y2="-2.55735695%" id="linearGradient-3">
            <stop stop-color="#D4E5FF" offset="0%"></stop>
            <stop stop-color="#FFFFFF" offset="100%"></stop>
        </linearGradient>
        <linearGradient x1="46.7971216%" y1="107.849685%" x2="36.359435%" y2="-2.55735695%" id="linearGradient-4">
            <stop stop-color="#D4E5FF" offset="0%"></stop>
            <stop stop-color="#FFFFFF" offset="100%"></stop>
        </linearGradient>
        <linearGradient x1="61.7966455%" y1="107.018022%" x2="59.7529858%" y2="78.7681516%" id="linearGradient-5">
            <stop stop-color="#DEECFF" offset="0%"></stop>
            <stop stop-color="#FFFFFF" offset="100%"></stop>
        </linearGradient>
    </defs>
    <g id="切图" stroke="none" stroke-width="1" fill="none" fill-rule="evenodd">
        <g id="03---资讯" transform="translate(-205.000000, -25.000000)" fill-rule="nonzero">
            <g id="分组-5" transform="translate(205.000000, 25.000000)">
                <g id="分组-9">
                    <g id="椭圆形-copy-5" fill="url(#linearGradient-1)">
                        <circle id="椭圆形-copy-3" cx="27" cy="27" r="27"></circle>
                    </g>
                    <g id="分组-8" transform="translate(14.000000, 13.000000)">
                        <path d="M16.7092415,26 C16.1158541,27.4659152 14.6786888,28.5 13,28.5 C11.3213112,28.5 9.8841459,27.4659152 9.29075852,26 L4,26 C3.44771525,26 3,25.5522847 3,25 C3,24.4477153 3.44771525,24 4,24 L22,24 C22.5522847,24 23,24.4477153 23,25 C23,25.5522847 22.5522847,26 22,26 L16.7092415,26 Z" id="合并形状" fill="#FFFFFF"></path>
                        <path d="M16.7092415,26 C16.1158541,27.4659152 14.6786888,28.5 13,28.5 C11.3213112,28.5 9.8841459,27.4659152 9.29075852,26 L4,26 C3.44771525,26 3,25.5522847 3,25 C3,24.4477153 3.44771525,24 4,24 L22,24 C22.5522847,24 23,24.4477153 23,25 C23,25.5522847 22.5522847,26 22,26 L16.7092415,26 Z" id="合并形状" fill="url(#linearGradient-2)"></path>
                        <path d="M5.77545803,10.2108172 L5.77545803,6.71192016 C5.77545803,6.43178298 5.8929629,6.16449055 6.09937514,5.97509459 L12.3244827,0.263174517 C12.703587,-0.0846770685 13.284771,-0.0880936987 13.6679388,0.255276686 L19.9225096,5.86022111 C20.1341837,6.04990984 20.2551363,6.32071267 20.2551363,6.60494451 L20.2551363,10.066531 C20.5118943,10.1966945 20.9039712,10.4310964 21.4313668,10.7697368 C22.7644745,11.4921606 23.9486723,14.8078403 24.9839604,20.716776 C25.0792847,21.2607782 24.715549,21.7790476 24.1715449,21.874361 C24.1145604,21.8843451 24.0568171,21.8893654 23.9989646,21.8893654 L21.4313668,21.8893654 C20.7968777,21.8168803 20.2738294,21.7510754 19.8622221,21.6919508 C19.6958982,21.8192007 19.4884032,21.8954412 19.2630098,21.8972159 L6.78333149,21.9954772 C6.58777835,21.9970169 6.40489381,21.9423203 6.25003172,21.8465014 C5.79952245,21.8726447 5.23414288,21.8869327 4.553893,21.8893654 L2.00018158,21.8893654 C1.93868766,21.8893654 1.87732482,21.8836932 1.81687287,21.872421 C1.27394091,21.7711824 0.915877694,21.2489789 1.01712585,20.7060487 C2.13688869,14.7008788 3.31581107,11.3887748 4.553893,10.7697368 C5.20336279,10.3593991 5.61055113,10.1730926 5.77545803,10.2108172 Z M12.9995812,15.9955755 C15.2087202,15.9955755 16.9995812,14.2047145 16.9995812,11.9955755 C16.9995812,9.78643652 15.2087202,7.99557552 12.9995812,7.99557552 C10.7904422,7.99557552 8.99958124,9.78643652 8.99958124,11.9955755 C8.99958124,14.2047145 10.7904422,15.9955755 12.9995812,15.9955755 Z" id="合并形状" fill="#FFFFFF"></path>
                        <path d="M23.9993834,22.8937899 L21.4317856,22.8937899 C20.695226,22.7914443 20.1921861,22.7211367 19.9226659,22.6828673 C19.9226659,22.6828673 20.2533597,11.0698435 20.2533597,11.0698435 C20.4245039,11.1564689 20.8173125,11.3912415 21.4317856,11.7741613 C22.7648932,12.4965851 23.9490911,15.8122648 24.9843792,21.7212005 C25.0797035,22.2652027 24.7159678,22.7834721 24.1719636,22.8787855 C24.1149792,22.8887696 24.0572358,22.8937899 23.9993834,22.8937899 Z" id="Shape-path" fill="url(#linearGradient-3)"></path>
                        <path d="M5.23788916,21.9024741 L2.74889355,21.9024741 C1.84820489,21.9002038 1.26310046,21.879934 0.993580279,21.8416645 C0.993580279,22.0525871 1.45337728,10.039183 1.45337728,10.039183 C1.62452139,10.1258085 2.02801928,10.3475201 2.66387095,10.7043178 C3.99773201,11.4271499 5.18412207,14.7693033 6.22304113,20.7307781 C6.31787223,21.2748667 5.95366631,21.792806 5.40957568,21.8876259 C5.3528807,21.8975062 5.29543863,21.9024741 5.23788916,21.9024741 Z" id="Shape-path" fill="url(#linearGradient-4)" transform="translate(3.615823, 15.970829) scale(-1, 1) translate(-3.615823, -15.970829) "></path>
                        <path d="M6.09937514,5.97509459 L12.3244827,0.263174517 C12.703587,-0.0846770685 13.284771,-0.0880936987 13.6679388,0.255276686 L19.9225096,5.86022111 C20.1341837,6.04990984 20.2551363,6.32071267 20.2551363,6.60494451 L20.0526025,21.1807906 C20.0526025,21.7300031 19.8122052,21.8928917 19.2630098,21.8972159 L6.78333149,21.9955295 C6.23106386,21.9998256 6.10372353,21.7330582 6.09937514,21.1807906 L5.77545803,6.71192016 C5.77545803,6.43178298 5.8929629,6.16449055 6.09937514,5.97509459 Z M12.9995812,15.9955755 C15.2087202,15.9955755 16.9995812,14.2047145 16.9995812,11.9955755 C16.9995812,9.78643652 15.2087202,7.99557552 12.9995812,7.99557552 C10.7904422,7.99557552 8.99958124,9.78643652 8.99958124,11.9955755 C8.99958124,14.2047145 10.7904422,15.9955755 12.9995812,15.9955755 Z" id="形状" fill="url(#linearGradient-5)"></path>
                    </g>
                </g>
                <rect id="news_ic_new" x="0" y="0" width="54" height="54"></rect>
            </g>
        </g>
    </g>
</svg>