<?xml version="1.0" encoding="UTF-8"?>
<svg width="375px" height="204px" viewBox="0 0 375 204" version="1.1" xmlns="http://www.w3.org/2000/svg" xmlns:xlink="http://www.w3.org/1999/xlink">
    <!-- Generator: Sketch 52.6 (67491) - http://www.bohemiancoding.com/sketch -->
    <title>rank_bg_yellow</title>
    <desc>Created with Sketch.</desc>
    <defs>
        <linearGradient x1="89.4504829%" y1="-80.7673911%" x2="38.5619783%" y2="87.1644017%" id="linearGradient-1">
            <stop stop-color="#FFD45D" offset="0%"></stop>
            <stop stop-color="#FFBA4B" offset="100%"></stop>
        </linearGradient>
        <rect id="path-2" x="0" y="0" width="375" height="204"></rect>
    </defs>
    <g id="切图" stroke="none" stroke-width="1" fill="none" fill-rule="evenodd">
        <g id="08---排行" transform="translate(-79.000000, -28.000000)">
            <g id="分组-4" transform="translate(79.000000, 28.000000)">
                <g id="分组-11">
                    <g id="椭圆形">
                        <mask id="mask-3" fill="white">
                            <use xlink:href="#path-2"></use>
                        </mask>
                        <use id="Mask" fill="url(#linearGradient-1)" fill-rule="nonzero" xlink:href="#path-2"></use>
                    </g>
                    <g id="分组-10" transform="translate(111.000000, 7.000000)" fill="#FFFFFF" fill-rule="nonzero">
                        <g id="分组-7" opacity="0.498027635" transform="translate(105.000000, 14.000000)" fill-opacity="0.3">
                            <path d="M69.7273953,95.6991897 L69.7273953,110.710869 L99.7420868,110.710869 C103.489824,110.710869 106.527965,113.74901 106.527965,117.496748 C106.527965,121.244485 103.489824,124.282626 99.7420868,124.282626 L28.0914713,124.282626 C24.3437342,124.282626 21.305593,121.244485 21.305593,117.496748 C21.305593,113.74901 24.3437342,110.710869 28.0914713,110.710869 L58.1061628,110.710869 L58.1061628,95.6992688 C48.7270462,94.8771899 40.0106187,91.1952153 33.2677958,85.1091861 C27.9087755,80.2860678 24.2273596,74.3666297 22.4756365,67.9180703 C22.2324748,67.8839866 21.9064876,67.8150776 21.4976747,67.7113432 C7.0386008,65.2827243 -6.03961325e-14,50.5179922 -6.03961325e-14,43.0788098 L-6.03961325e-14,28.305593 C-6.08695802e-14,24.4395998 3.13400675,21.305593 7,21.305593 L21.305593,21.305593 L21.305593,7.70327943 C21.305593,6.80218629 21.305593,5.90109314 21.305593,5 C21.305593,2.23857625 23.5441693,-3.50198715e-14 26.305593,-3.55271368e-14 L101.527965,-3.55271368e-14 C104.289389,-3.60344021e-14 106.527965,2.23857625 106.527965,5 C106.527965,5.94068025 106.527965,6.8813605 106.527965,7.82204074 L106.527965,21.305593 L120.898136,21.305593 C124.820387,21.305593 128,25.0532348 128,29.6761852 L128,43.0788098 C128,50.5179922 120.961399,65.2827243 106.502325,67.7113432 C106.082073,67.7934864 105.705661,67.8450047 105.373089,67.8658979 C103.627504,74.340795 99.9402997,80.2860021 94.5657623,85.1091861 C87.8037247,91.19502 79.1022345,94.8769536 69.7273953,95.6991897 Z M7,42.7040268 C7,48.0695694 11.4400784,58.7186963 20.5611274,60.4703482 C21.3292941,60.6932112 21.6338836,60.6932112 21.474896,60.4703482 C21.2772518,60.1932976 21.2772518,49.0365149 21.474896,27 L14,27 C10.1340068,27 7,30.1340068 7,34 L7,42.7040268 Z M121,42.7040268 L121,34 C121,30.1340068 117.865993,27 114,27 L106.525104,27 C106.722748,49.0365149 106.722748,60.1932976 106.525104,60.4703482 C106.366116,60.6932112 106.670706,60.6932112 107.438873,60.4703482 C116.559922,58.7186963 121,48.0695694 121,42.7040268 Z" id="合并形状"></path>
                            <path d="M59.8418908,56.5900275 L56.3129329,58.4930807 C54.214499,59.6246985 51.5960247,58.8409391 50.464407,56.7425052 C50.014657,55.908504 49.8518042,54.9496933 50.0009682,54.0139673 L50.7653366,49.2189798 C51.2012447,46.4844685 50.3185514,43.7048606 48.3848599,41.7228402 L45.1770703,38.4348782 C43.4506512,36.6653106 43.4856299,33.8312534 45.2551975,32.1048342 C45.9197615,31.4564747 46.7694852,31.0307996 47.6866918,30.8867598 L51.7080049,30.2552454 C54.5512516,29.8087367 56.993762,27.9940461 58.2420138,25.4007298 L60.1241466,21.4904887 C61.1543994,19.3500782 63.7247299,18.4501175 65.8651404,19.4803703 C66.7436372,19.9032209 67.4524083,20.6119919 67.8752588,21.4904887 L69.7573916,25.4007298 C71.0056434,27.9940461 73.4481538,29.8087367 76.2914006,30.2552454 L80.3127137,30.8867598 C82.7550052,31.2703017 84.4239516,33.5610924 84.0404096,36.003384 C83.8963698,36.9205905 83.4706946,37.7703142 82.8223351,38.4348782 L79.6145456,41.7228402 C77.680854,43.7048606 76.7981608,46.4844685 77.2340689,49.2189798 L77.9984373,54.0139673 C78.3737494,56.3683514 76.7693945,58.5812074 74.4150104,58.9565195 C73.4792844,59.1056835 72.5204737,58.9428306 71.6864725,58.4930807 L68.1575147,56.5900275 C65.5622942,55.1905087 62.4371113,55.1905087 59.8418908,56.5900275 Z" id="Star-Copy" stroke-opacity="0.27" stroke="#FFFFFF" stroke-width="10" opacity="0.815359933"></path>
                            <rect id="矩形" x="20" y="0" width="87" height="5" rx="2.5"></rect>
                        </g>
                        <path d="M84.9705627,115.970563 C87.9705627,118.970563 90.9705627,120.470563 93.9705627,120.470563 C96.9705627,120.470563 99.9705627,118.970563 102.970563,115.970563 C99.9705627,118.970563 98.4705627,121.970563 98.4705627,124.970563 C98.4705627,127.970563 99.9705627,130.970563 102.970563,133.970563 C99.9705627,130.970563 96.9705627,129.470563 93.9705627,129.470563 C90.9705627,129.470563 87.9705627,130.970563 84.9705627,133.970563 C87.9705627,130.970563 89.4705627,127.970563 89.4705627,124.970563 C89.4705627,121.970563 87.9705627,118.970563 84.9705627,115.970563 Z" id="矩形" fill-opacity="0.14" opacity="0.850678943" transform="translate(93.970563, 124.970563) rotate(-45.000000) translate(-93.970563, -124.970563) "></path>
                        <path d="M207.899495,2.89949494 C210.232828,5.23282827 212.566162,6.39949494 214.899495,6.39949494 C217.232828,6.39949494 219.566162,5.23282827 221.899495,2.89949494 C219.566162,5.23282827 218.399495,7.5661616 218.399495,9.89949494 C218.399495,12.2328283 219.566162,14.5661616 221.899495,16.8994949 C219.566162,14.5661616 217.232828,13.3994949 214.899495,13.3994949 C212.566162,13.3994949 210.232828,14.5661616 207.899495,16.8994949 C210.232828,14.5661616 211.399495,12.2328283 211.399495,9.89949494 C211.399495,7.5661616 210.232828,5.23282827 207.899495,2.89949494 Z" id="矩形-copy-2" fill-opacity="0.2" transform="translate(214.899495, 9.899495) rotate(-45.000000) translate(-214.899495, -9.899495) "></path>
                        <path d="M246.899495,107.899495 C249.232828,110.232828 251.566162,111.399495 253.899495,111.399495 C256.232828,111.399495 258.566162,110.232828 260.899495,107.899495 C258.566162,110.232828 257.399495,112.566162 257.399495,114.899495 C257.399495,117.232828 258.566162,119.566162 260.899495,121.899495 C258.566162,119.566162 256.232828,118.399495 253.899495,118.399495 C251.566162,118.399495 249.232828,119.566162 246.899495,121.899495 C249.232828,119.566162 250.399495,117.232828 250.399495,114.899495 C250.399495,112.566162 249.232828,110.232828 246.899495,107.899495 Z" id="矩形-copy-7" fill-opacity="0.2" transform="translate(253.899495, 114.899495) rotate(-45.000000) translate(-253.899495, -114.899495) "></path>
                        <path d="M187.899495,61.8994949 C190.232828,64.2328283 192.566162,65.3994949 194.899495,65.3994949 C197.232828,65.3994949 199.566162,64.2328283 201.899495,61.8994949 C199.566162,64.2328283 198.399495,66.5661616 198.399495,68.8994949 C198.399495,71.2328283 199.566162,73.5661616 201.899495,75.8994949 C199.566162,73.5661616 197.232828,72.3994949 194.899495,72.3994949 C192.566162,72.3994949 190.232828,73.5661616 187.899495,75.8994949 C190.232828,73.5661616 191.399495,71.2328283 191.399495,68.8994949 C191.399495,66.5661616 190.232828,64.2328283 187.899495,61.8994949 Z" id="矩形-copy-5" fill-opacity="0.2" transform="translate(194.899495, 68.899495) rotate(-45.000000) translate(-194.899495, -68.899495) "></path>
                        <path d="M51.8994949,56.1005051 C54.2328283,58.4338384 56.5661616,59.6005051 58.8994949,59.6005051 C61.2328283,59.6005051 63.5661616,58.4338384 65.8994949,56.1005051 C63.5661616,58.4338384 62.3994949,60.7671717 62.3994949,63.1005051 C62.3994949,65.4338384 63.5661616,67.7671717 65.8994949,70.1005051 C63.5661616,67.7671717 61.2328283,66.6005051 58.8994949,66.6005051 C56.5661616,66.6005051 54.2328283,67.7671717 51.8994949,70.1005051 C54.2328283,67.7671717 55.3994949,65.4338384 55.3994949,63.1005051 C55.3994949,60.7671717 54.2328283,58.4338384 51.8994949,56.1005051 Z" id="矩形-copy-6" fill-opacity="0.2" opacity="0.817080543" transform="translate(58.899495, 63.100505) rotate(-45.000000) translate(-58.899495, -63.100505) "></path>
                        <path d="M2.89949494,56.8994949 C5.23282827,59.2328283 7.5661616,60.3994949 9.89949494,60.3994949 C12.2328283,60.3994949 14.5661616,59.2328283 16.8994949,56.8994949 C14.5661616,59.2328283 13.3994949,61.5661616 13.3994949,63.8994949 C13.3994949,66.2328283 14.5661616,68.5661616 16.8994949,70.8994949 C14.5661616,68.5661616 12.2328283,67.3994949 9.89949494,67.3994949 C7.5661616,67.3994949 5.23282827,68.5661616 2.89949494,70.8994949 C5.23282827,68.5661616 6.39949494,66.2328283 6.39949494,63.8994949 C6.39949494,61.5661616 5.23282827,59.2328283 2.89949494,56.8994949 Z" id="矩形-copy-4" fill-opacity="0.14" transform="translate(9.899495, 63.899495) rotate(-45.000000) translate(-9.899495, -63.899495) "></path>
                        <path d="M94.9705627,24.9705627 C98.9705627,28.9705627 102.970563,30.9705627 106.970563,30.9705627 C110.970563,30.9705627 114.970563,28.9705627 118.970563,24.9705627 C114.970563,28.9705627 112.970563,32.9705627 112.970563,36.9705627 C112.970563,40.9705627 114.970563,44.9705627 118.970563,48.9705627 C114.970563,44.9705627 110.970563,42.9705627 106.970563,42.9705627 C102.970563,42.9705627 98.9705627,44.9705627 94.9705627,48.9705627 C98.9705627,44.9705627 100.970563,40.9705627 100.970563,36.9705627 C100.970563,32.9705627 98.9705627,28.9705627 94.9705627,24.9705627 Z" id="矩形-copy-3" fill-opacity="0.2" opacity="0.817080543" transform="translate(106.970563, 36.970563) rotate(-45.000000) translate(-106.970563, -36.970563) "></path>
                    </g>
                </g>
                <rect id="rank_bg_yellow" fill-rule="nonzero" x="0" y="0" width="375" height="204"></rect>
            </g>
        </g>
    </g>
</svg>