<?xml version="1.0" encoding="UTF-8"?>
<svg width="28px" height="32px" viewBox="0 0 28 32" version="1.1" xmlns="http://www.w3.org/2000/svg" xmlns:xlink="http://www.w3.org/1999/xlink">
    <!-- Generator: Sketch 52.6 (67491) - http://www.bohemiancoding.com/sketch -->
    <title>rank_ic_two</title>
    <desc>Created with Sketch.</desc>
    <defs>
        <linearGradient x1="33.0302154%" y1="3.49558477%" x2="79.0480554%" y2="96.9968616%" id="linearGradient-1">
            <stop stop-color="#A8D2F4" offset="0%"></stop>
            <stop stop-color="#6AABE4" offset="100%"></stop>
        </linearGradient>
        <linearGradient x1="75.0306262%" y1="88.8449229%" x2="22.9949752%" y2="22.2045825%" id="linearGradient-2">
            <stop stop-color="#87AEF4" offset="0%"></stop>
            <stop stop-color="#99C4E9" offset="100%"></stop>
        </linearGradient>
        <linearGradient x1="26.1680817%" y1="5.56060525%" x2="71.3616049%" y2="94.8988404%" id="linearGradient-3">
            <stop stop-color="#EFF0F1" offset="0%"></stop>
            <stop stop-color="#EFF0F1" offset="100%"></stop>
        </linearGradient>
        <linearGradient x1="33.0302154%" y1="3.49558477%" x2="78.053676%" y2="94.9764334%" id="linearGradient-4">
            <stop stop-color="#5EAFF0" offset="0%"></stop>
            <stop stop-color="#50A0E6" offset="100%"></stop>
        </linearGradient>
    </defs>
    <g id="切图" stroke="none" stroke-width="1" fill="none" fill-rule="evenodd">
        <g id="08---排行" transform="translate(-33.000000, -79.000000)">
            <g id="分组-2" transform="translate(33.000000, 79.000000)">
                <g id="Group-6-Copy">
                    <g id="Group-12-Copy" transform="translate(4.666667, 0.000000)" fill="url(#linearGradient-1)" fill-rule="nonzero">
                        <path d="M7.95090888,7.39682884 C7.50598947,4.93977747 6.11647326,3.11746989 3.78236026,1.9299061 C0.281190757,0.148560414 -0.595484339,4.04235293 1.16666667,5.23974316 C2.92881767,6.43713338 4.52379041,5.24586106 5.3185629,7.84329461 C5.84841123,9.57491697 6.72585989,9.42609505 7.95090888,7.39682884 Z" id="Path-3"></path>
                        <path d="M11.0254978,8.08096018 C12.0814906,6.54432131 11.9103934,5.01634472 10.5122059,3.49703041 C8.41492482,1.21805896 12.3489206,-1.86323682 14.7010968,1.4576579 C16.2692143,3.67158772 15.6943179,6.22999494 12.9764077,9.13287958 L11.0254978,8.08096018 Z" id="Path-4"></path>
                    </g>
                    <path d="M11.4676307,30.4743485 L11.3583859,30.524958 C10.0185574,31.1456552 8.42905356,30.5662412 7.80297183,29.2289203 L7.80297183,29.2289203 C7.0886234,27.7030604 5.70923186,26.5929518 4.06591341,26.2214053 L3.76523962,26.1534244 C2.44877981,25.8557792 1.62286743,24.5472885 1.92051268,23.2308287 C1.93538473,23.1650508 1.95297314,23.0999168 1.97323275,23.0355938 L1.97323275,23.0355938 C2.47219968,21.4514052 2.15497457,19.7229555 1.12597801,18.4191964 L1.09375014,18.378363 C0.266434205,17.3301373 0.445516996,15.8097103 1.49374275,14.9823944 C1.56505868,14.926108 1.63949033,14.8738859 1.71668361,14.8259765 L1.88184796,14.7234685 C3.29021673,13.8493749 4.19152218,12.3505919 4.30332099,10.6967953 L4.30332099,10.6967953 C4.3981328,9.294281 5.61195546,8.23417864 7.01446979,8.32899044 C7.04550541,8.33108849 7.07649997,8.33375531 7.10743784,8.33698954 L7.3846337,8.36596752 C9.10455498,8.54576764 10.8150566,7.94916493 12.0500757,6.73871662 L12.0500757,6.73871662 C13.1332694,5.67707318 14.8667306,5.67707318 15.9499243,6.73871662 L15.9499243,6.73871662 C17.1849434,7.94916493 18.895445,8.54576764 20.6153663,8.36596752 L20.8925622,8.33698954 C22.2906587,8.1908329 23.5425233,9.20573072 23.6886799,10.6038273 C23.6919141,10.6347651 23.694581,10.6657597 23.696679,10.6967953 L23.696679,10.6967953 C23.8084778,12.3505919 24.7097833,13.8493749 26.118152,14.7234685 L26.2833164,14.8259765 C27.4179294,15.5301656 27.7668569,17.0208092 27.0626678,18.1554222 C27.0147583,18.2326154 26.9625362,18.3070471 26.9062499,18.378363 L26.874022,18.4191964 C25.8450254,19.7229555 25.5278003,21.4514052 26.0267672,23.0355938 L26.0267672,23.0355938 C26.4322377,24.3229372 25.7173385,25.6952339 24.4299952,26.1007044 C24.3656722,26.120964 24.3005382,26.1385524 24.2347604,26.1534244 L23.9340866,26.2214053 C22.2907681,26.5929518 20.9113766,27.7030604 20.1970282,29.2289203 L20.1970282,29.2289203 C19.5709464,30.5662412 17.9814426,31.1456552 16.6416141,30.524958 L16.5323693,30.4743485 C14.9261189,29.7302271 13.0738811,29.7302271 11.4676307,30.4743485 Z" id="Star-3-Copy" fill="url(#linearGradient-2)"></path>
                    <path d="M13.8919753,26.353058 C18.6648065,26.353058 22.5339506,22.7952243 22.5339506,18.4064141 C22.5339506,14.0176038 18.6648065,10.4597701 13.8919753,10.4597701 C9.11914414,10.4597701 5.25,14.0176038 5.25,18.4064141 C5.25,22.7952243 9.11914414,26.353058 13.8919753,26.353058 Z" id="Path-Copy" fill="url(#linearGradient-3)"></path>
                    <path d="M16.8,22.6598386 L10.9666667,22.6598386 L10.9666667,20.8907511 L13.8833333,17.647424 C14.4699255,16.9956549 14.5188082,16.5921788 14.5188082,15.9714463 C14.5188082,15.459342 14.2418063,15.1955307 13.8507449,15.1955307 C13.4596834,15.1955307 13.1500931,15.4438237 13.1500931,15.955928 L13.1500931,16.5456238 L10.9666667,16.5456238 L10.9666667,16.0335196 C10.9666667,15.0713842 11.2436685,14.512725 11.7650838,14.0471757 C12.2864991,13.566108 13.068622,13.3333333 13.8507449,13.3333333 C14.6328678,13.3333333 15.3009311,13.5040348 15.8386406,13.9695841 C16.3437616,14.4040968 16.7022346,15.0869025 16.7022346,16.0490379 C16.7022346,17.1198014 16.3437616,17.8181254 15.577933,18.6250776 L13.5248603,20.7976412 L16.8,20.7976412 L16.8,22.6598386 Z" id="2" fill="url(#linearGradient-4)"></path>
                </g>
                <rect id="rank_ic_two" fill-rule="nonzero" x="0" y="0" width="28" height="32"></rect>
            </g>
        </g>
    </g>
</svg>