<?xml version="1.0" encoding="UTF-8"?>
<svg width="28px" height="32px" viewBox="0 0 28 32" version="1.1" xmlns="http://www.w3.org/2000/svg" xmlns:xlink="http://www.w3.org/1999/xlink">
    <!-- Generator: Sketch 52.6 (67491) - http://www.bohemiancoding.com/sketch -->
    <title>rank_ic_three</title>
    <desc>Created with Sketch.</desc>
    <defs>
        <linearGradient x1="33.0302154%" y1="3.49558477%" x2="79.0480554%" y2="96.9968616%" id="linearGradient-1">
            <stop stop-color="#FFB781" offset="0%"></stop>
            <stop stop-color="#FF8D41" offset="100%"></stop>
        </linearGradient>
        <linearGradient x1="33.0302154%" y1="3.49558477%" x2="79.0480554%" y2="96.9968616%" id="linearGradient-2">
            <stop stop-color="#F7812C" offset="0%"></stop>
            <stop stop-color="#F36C1E" offset="100%"></stop>
        </linearGradient>
    </defs>
    <g id="切图" stroke="none" stroke-width="1" fill="none" fill-rule="evenodd">
        <g id="08---排行" transform="translate(-33.000000, -122.000000)">
            <g id="分组-3" transform="translate(33.000000, 122.000000)">
                <g id="Group-7-Copy">
                    <g id="Group-12-Copy" transform="translate(4.666667, 0.000000)" fill="url(#linearGradient-1)" fill-rule="nonzero">
                        <path d="M7.95090888,7.39682884 C7.50598947,4.93977747 6.11647326,3.11746989 3.78236026,1.9299061 C0.281190757,0.148560414 -0.595484339,4.04235293 1.16666667,5.23974316 C2.92881767,6.43713338 4.52379041,5.24586106 5.3185629,7.84329461 C5.84841123,9.57491697 6.72585989,9.42609505 7.95090888,7.39682884 Z" id="Path-3"></path>
                        <path d="M11.0254978,8.08096018 C12.0814906,6.54432131 11.9103934,5.01634472 10.5122059,3.49703041 C8.41492482,1.21805896 12.3489206,-1.86323682 14.7010968,1.4576579 C16.2692143,3.67158772 15.6943179,6.22999494 12.9764077,9.13287958 L11.0254978,8.08096018 Z" id="Path-4"></path>
                    </g>
                    <path d="M11.4676307,30.4743485 L11.3583859,30.524958 C10.0185574,31.1456552 8.42905356,30.5662412 7.80297183,29.2289203 L7.80297183,29.2289203 C7.0886234,27.7030604 5.70923186,26.5929518 4.06591341,26.2214053 L3.76523962,26.1534244 C2.44877981,25.8557792 1.62286743,24.5472885 1.92051268,23.2308287 C1.93538473,23.1650508 1.95297314,23.0999168 1.97323275,23.0355938 L1.97323275,23.0355938 C2.47219968,21.4514052 2.15497457,19.7229555 1.12597801,18.4191964 L1.09375014,18.378363 C0.266434205,17.3301373 0.445516996,15.8097103 1.49374275,14.9823944 C1.56505868,14.926108 1.63949033,14.8738859 1.71668361,14.8259765 L1.88184796,14.7234685 C3.29021673,13.8493749 4.19152218,12.3505919 4.30332099,10.6967953 L4.30332099,10.6967953 C4.3981328,9.294281 5.61195546,8.23417864 7.01446979,8.32899044 C7.04550541,8.33108849 7.07649997,8.33375531 7.10743784,8.33698954 L7.3846337,8.36596752 C9.10455498,8.54576764 10.8150566,7.94916493 12.0500757,6.73871662 L12.0500757,6.73871662 C13.1332694,5.67707318 14.8667306,5.67707318 15.9499243,6.73871662 L15.9499243,6.73871662 C17.1849434,7.94916493 18.895445,8.54576764 20.6153663,8.36596752 L20.8925622,8.33698954 C22.2906587,8.1908329 23.5425233,9.20573072 23.6886799,10.6038273 C23.6919141,10.6347651 23.694581,10.6657597 23.696679,10.6967953 L23.696679,10.6967953 C23.8084778,12.3505919 24.7097833,13.8493749 26.118152,14.7234685 L26.2833164,14.8259765 C27.4179294,15.5301656 27.7668569,17.0208092 27.0626678,18.1554222 C27.0147583,18.2326154 26.9625362,18.3070471 26.9062499,18.378363 L26.874022,18.4191964 C25.8450254,19.7229555 25.5278003,21.4514052 26.0267672,23.0355938 L26.0267672,23.0355938 C26.4322377,24.3229372 25.7173385,25.6952339 24.4299952,26.1007044 C24.3656722,26.120964 24.3005382,26.1385524 24.2347604,26.1534244 L23.9340866,26.2214053 C22.2907681,26.5929518 20.9113766,27.7030604 20.1970282,29.2289203 L20.1970282,29.2289203 C19.5709464,30.5662412 17.9814426,31.1456552 16.6416141,30.524958 L16.5323693,30.4743485 C14.9261189,29.7302271 13.0738811,29.7302271 11.4676307,30.4743485 Z" id="Star-3-Copy" fill="url(#linearGradient-1)"></path>
                    <path d="M13.8919753,26.353058 C18.6648065,26.353058 22.5339506,22.7952243 22.5339506,18.4064141 C22.5339506,14.0176038 18.6648065,10.4597701 13.8919753,10.4597701 C9.11914414,10.4597701 5.25,14.0176038 5.25,18.4064141 C5.25,22.7952243 9.11914414,26.353058 13.8919753,26.353058 Z" id="Path-Copy" fill="#FFE4D0"></path>
                    <path d="M16.765,20.5492979 C16.765,21.4772589 16.7813333,22.3037241 15.932,23.0141941 C15.4093333,23.4491758 14.6416667,23.6666667 13.8576667,23.6666667 C13.0736667,23.6666667 12.2896667,23.4491758 11.767,22.9996947 C11.2443333,22.5647131 10.9666667,22.042735 10.9666667,21.1437729 L10.9666667,20.5927961 L13.1553333,20.5927961 L13.1553333,21.2162698 C13.1553333,21.6947497 13.4656667,21.9267399 13.8576667,21.9267399 C14.119,21.9267399 14.2823333,21.7962454 14.3803333,21.6802503 C14.5926667,21.4337607 14.5763333,20.73779 14.5763333,20.404304 C14.5763333,20.0708181 14.5926667,19.4618437 14.3966667,19.1863553 C14.2823333,19.0413614 14.119,18.9398657 13.8413333,18.9398657 L13.3186667,18.9398657 L13.3186667,17.3159341 L13.8413333,17.3159341 C14.0536667,17.3159341 14.2006667,17.2434371 14.2986667,17.1419414 C14.5273333,16.8954518 14.4946667,16.3589744 14.4946667,16.0544872 C14.4946667,15.7644994 14.5273333,15.3005189 14.3313333,15.0540293 C14.2333333,14.9380342 14.1026667,14.8510379 13.8576667,14.8510379 C13.5146667,14.8510379 13.237,15.0540293 13.237,15.4745116 L13.237,16.1849817 L11.0483333,16.1849817 L11.0483333,15.6050061 C11.0483333,14.7640415 11.326,14.1985653 11.8486667,13.7635836 C12.3713333,13.3141026 13.0736667,13.1111111 13.8576667,13.1111111 C14.7396667,13.1111111 15.393,13.3431013 15.8503333,13.7490842 C16.422,14.2420635 16.6833333,15.0105311 16.6833333,15.9094933 C16.6833333,16.4459707 16.667,16.9824481 16.4056667,17.4754274 C16.2586667,17.7364164 16.0463333,17.9539072 15.7686667,18.1278999 C16.0626667,18.3308913 16.2913333,18.5483822 16.4546667,18.8238706 C16.765,19.360348 16.765,19.9693223 16.765,20.5492979 Z" id="3" fill="url(#linearGradient-2)"></path>
                </g>
                <rect id="rank_ic_three" fill-rule="nonzero" x="0" y="0" width="28" height="32"></rect>
            </g>
        </g>
    </g>
</svg>