<?xml version="1.0" encoding="UTF-8"?>
<svg width="76px" height="76px" viewBox="0 0 76 76" version="1.1" xmlns="http://www.w3.org/2000/svg" xmlns:xlink="http://www.w3.org/1999/xlink">
    <!-- Generator: Sketch 52.6 (67491) - http://www.bohemiancoding.com/sketch -->
    <title>share_ic_twitter</title>
    <desc>Created with Sketch.</desc>
    <defs>
        <circle id="path-1" cx="38" cy="36" r="30"></circle>
        <filter x="-21.7%" y="-18.3%" width="143.3%" height="143.3%" filterUnits="objectBoundingBox" id="filter-2">
            <feOffset dx="0" dy="2" in="SourceAlpha" result="shadowOffsetOuter1"></feOffset>
            <feGaussianBlur stdDeviation="4" in="shadowOffsetOuter1" result="shadowBlurOuter1"></feGaussianBlur>
            <feColorMatrix values="0 0 0 0 0.00392156863   0 0 0 0 0.0431372549   0 0 0 0 0.145098039  0 0 0 0.03 0" type="matrix" in="shadowBlurOuter1"></feColorMatrix>
        </filter>
    </defs>
    <g id="切图" stroke="none" stroke-width="1" fill="none" fill-rule="evenodd">
        <g id="02---页尾" transform="translate(-250.000000, -132.000000)">
            <g id="分组-2" transform="translate(250.000000, 132.000000)">
                <g id="椭圆形" fill-rule="nonzero">
                    <use fill="black" fill-opacity="1" filter="url(#filter-2)" xlink:href="#path-1"></use>
                    <use fill="#FFFFFF" xlink:href="#path-1"></use>
                </g>
                <path d="M39.7244947,32.2136873 L39.7857647,33.2240019 L38.764597,33.1002899 C35.0475463,32.6260606 31.8002329,31.0178047 29.0430799,28.3167596 L27.6951385,26.9765464 L27.3479414,27.9662423 C26.6127007,30.1724394 27.0824378,32.5023486 28.6141895,34.0693671 C29.4311237,34.935351 29.2473135,35.059063 27.838102,34.5435964 C27.3479414,34.3786471 26.919051,34.2549351 26.8782043,34.3167911 C26.7352408,34.4611217 27.2254013,36.3374203 27.6134451,37.0796922 C28.1444523,38.1106254 29.2268901,39.12094 30.4114447,39.7188813 L31.4121891,40.1931106 L30.2276345,40.2137293 C29.0839266,40.2137293 29.0430799,40.2343479 29.1656201,40.6673399 C29.5740872,42.0075531 31.1875322,43.430241 32.9847875,44.0488009 L34.2510355,44.4817929 L33.1481743,45.1415902 C31.5143059,46.0900488 29.5945105,46.626134 27.6747151,46.6673714 C26.7556641,46.68799 26,46.7704647 26,46.8323207 C26,47.0385073 28.4916493,48.1931526 29.9417075,48.6467632 C34.2918822,49.9869764 39.4589911,49.4096538 43.3394285,47.120982 C46.0965815,45.4921075 48.8537344,42.2549771 50.1404058,39.12094 C50.8347999,37.4508282 51.529194,34.3992658 51.529194,32.9353405 C51.529194,31.986882 51.590464,31.86317 52.7341719,30.7291434 C53.4081426,30.0693461 54.0412667,29.3476929 54.1638068,29.1415062 C54.3680403,28.7497516 54.347617,28.7497516 53.3060259,29.1002689 C51.5700407,29.7188288 51.3249604,29.6363542 52.1827413,28.7085142 C52.8158653,28.048717 53.5715295,26.8528344 53.5715295,26.5023171 C53.5715295,26.4404611 53.2651792,26.5435544 52.9179821,26.7291224 C52.5503617,26.9353091 51.7334275,27.244589 51.1207269,27.430157 L50.0178657,27.7806743 L49.0171213,27.1002584 C48.4656907,26.7291224 47.6896032,26.3167491 47.2811361,26.1930371 C46.239545,25.9043758 44.6465233,25.9456131 43.7070489,26.2755118 C41.1541295,27.2033517 39.5406845,29.5951168 39.7244947,32.2136873 Z" id="Shape" fill="#55ACEE"></path>
                <rect id="share_ic_twitter" fill-rule="nonzero" x="0" y="0" width="76" height="76"></rect>
            </g>
        </g>
    </g>
</svg>