<?xml version="1.0" encoding="UTF-8"?>
<svg width="30px" height="30px" viewBox="0 0 30 30" version="1.1" xmlns="http://www.w3.org/2000/svg" xmlns:xlink="http://www.w3.org/1999/xlink">
    <!-- Generator: Sketch 55.2 (78181) - https://sketchapp.com -->
    <title>tab_ic_app_default</title>
    <desc>Created with Sketch.</desc>
    <g id="切图" stroke="none" stroke-width="1" fill="none" fill-rule="evenodd">
        <g id="02---Lite" transform="translate(-125.000000, -116.000000)" fill-rule="nonzero">
            <g id="分组-6-copy" transform="translate(125.000000, 116.000000)">
                <path d="M9,7 L16,7 C16.5522847,7 17,7.44771525 17,8 L17,22 C17,22.5522847 16.5522847,23 16,23 L9,23 C7.8954305,23 7,22.1045695 7,21 L7,9 C7,7.8954305 7.8954305,7 9,7 Z" id="Rectangle-12" fill="#D1D8E6"></path>
                <path d="M19.0034842,14 L22,14 C22.5522847,14 23,14.4477153 23,15 L23,21 C23,22.1045695 22.1045695,23 21,23 L19.0034842,23 C18.4511994,23 18.0034842,22.5522847 18.0034842,22 L18.0034842,15 C18.0034842,14.4477153 18.4511994,14 19.0034842,14 Z" id="Rectangle-12-Copy-2" fill="#D1D8E6"></path>
                <path d="M19.0034842,7 L21,7 C22.1045695,7 23,7.8954305 23,9 L23,12.003774 C23,12.5560588 22.5522847,13.003774 22,13.003774 L19.0034842,13.003774 C18.4511994,13.003774 18.0034842,12.5560588 18.0034842,12.003774 L18.0034842,8 C18.0034842,7.44771525 18.4511994,7 19.0034842,7 Z" id="Rectangle-12-Copy-3" fill="#D1D8E6"></path>
                <rect id="tab_ic_app_default" x="0" y="0" width="30" height="30"></rect>
            </g>
        </g>
    </g>
</svg>