<?xml version="1.0" encoding="UTF-8"?>
<svg width="120px" height="120px" viewBox="0 0 120 120" version="1.1" xmlns="http://www.w3.org/2000/svg" xmlns:xlink="http://www.w3.org/1999/xlink">
    <!-- Generator: Sketch 55.1 (78136) - https://sketchapp.com -->
    <title>pop_submit_ success</title>
    <desc>Created with Sketch.</desc>
    <g id="切图" stroke="none" stroke-width="1" fill="none" fill-rule="evenodd">
        <g id="11---问题反馈" transform="translate(-286.000000, -217.000000)">
            <g id="编组-8" transform="translate(286.000000, 217.000000)">
                <g id="编组-6" transform="translate(24.444444, 24.444444)" fill-rule="nonzero">
                    <path d="M35.5555556,0 C15.8684699,0 0,15.8865248 0,35.5555556 C0,55.2245863 15.953328,71.1111111 35.5555556,71.1111111 C55.1577831,71.1111111 71.1111111,55.2245863 71.1111111,35.5555556 C71.1111111,15.8865248 55.2426412,0 35.5555556,0 L35.5555556,0 Z" id="Shape" fill="#FFFFFF"></path>
                    <g id="编组-5" transform="translate(4.444444, 4.444444)">
                        <path d="M31.1111111,0 C13.8849112,0 0,13.9007092 0,31.1111111 C0,48.321513 13.959162,62.2222222 31.1111111,62.2222222 C48.2630602,62.2222222 62.2222222,48.321513 62.2222222,31.1111111 C62.2222222,13.9007092 48.3373111,0 31.1111111,0 L31.1111111,0 Z" id="Shape" fill="#48A0FC"></path>
                        <path d="M49.3165949,22.1763079 L28.5517128,42.7582406 C28.0325908,43.2655418 27.4393084,43.4829566 26.6977055,43.4829566 C26.0302628,43.4829566 25.3628202,43.2655418 24.8436982,42.7582406 L12.7555704,30.8728992 C11.7173263,29.8582969 11.7173263,28.2639218 12.7555704,27.2493195 C13.7938145,26.2347171 15.4253409,26.2347171 16.463585,27.2493195 L26.6235452,37.2503995 L45.6827405,18.5527281 C46.7209846,17.5381258 48.352511,17.5381258 49.3907551,18.5527281 C50.354839,19.4948589 50.354839,21.1617055 49.3165949,22.1763079 L49.3165949,22.1763079 Z" id="Shape" fill="#FFFFFF"></path>
                    </g>
                </g>
                <path d="M18.7922705,96.6666667 C18.2401656,96.6666667 17.7984817,96.4478632 17.2463768,96.1196581 C16.47343,95.3538462 16.47343,93.9316239 17.2463768,93.165812 L21.994479,88.3521368 C22.7674258,87.5863248 24.2028986,87.5863248 24.9758454,88.3521368 C25.7487923,89.1179487 25.7487923,90.5401709 24.9758454,91.3059829 L20.2277433,96.1196581 C19.8964803,96.4478632 19.3443754,96.6666667 18.7922705,96.6666667 L18.7922705,96.6666667 Z" id="Shape" fill="#FCCD53" fill-rule="nonzero"></path>
                <path d="M6.3800905,51.1111111 C5.87732529,51.1111111 5.47511312,50.909549 4.97234791,50.6072058 C4.26847662,49.9017385 4.26847662,48.5915848 4.97234791,47.8861174 L12.31272,40.5291005 C13.0165913,39.8236332 14.3237808,39.8236332 15.0276521,40.5291005 C15.7315234,41.2345679 15.7315234,42.5447216 15.0276521,43.250189 L7.68728004,50.6072058 C7.28506787,51.0103301 6.78230266,51.1111111 6.3800905,51.1111111 L6.3800905,51.1111111 Z M56.3800905,111.111111 C55.8773253,111.111111 55.4751131,110.909549 54.9723479,110.607206 C54.2684766,109.901738 54.2684766,108.591585 54.9723479,107.886117 L62.31272,100.529101 C63.0165913,99.8236332 64.3237808,99.8236332 65.0276521,100.529101 C65.7315234,101.234568 65.7315234,102.544722 65.0276521,103.250189 L57.68728,110.607206 C57.486174,110.909549 56.9834087,111.111111 56.3800905,111.111111 Z M94.092289,23.3333333 C93.6065574,23.3333333 93.2179721,23.1385084 92.7322404,22.7488584 C92.0522162,22.0669711 92.0522162,20.8006088 92.7322404,20.1187215 L97.9781421,14.95586 C98.6581664,14.2739726 99.9210686,14.2739726 100.601093,14.95586 C101.281117,15.6377473 101.281117,16.9041096 100.601093,17.585997 L95.3551913,22.8462709 C94.966606,23.1385084 94.5780206,23.3333333 94.092289,23.3333333 Z" id="Shape" fill="#48A0FC" fill-rule="nonzero"></path>
                <path d="M103.214936,65.5555556 C102.668488,65.5555556 102.23133,65.3363775 101.684882,64.8980213 C100.919854,64.130898 100.919854,62.7062405 101.684882,61.9391172 L107.586521,56.130898 C108.351548,55.3637747 109.772313,55.3637747 110.537341,56.130898 C111.302368,56.8980213 111.302368,58.3226788 110.537341,59.0898021 L104.635701,64.8980213 C104.198543,65.4459665 103.652095,65.5555556 103.214936,65.5555556 Z" id="Shape" fill="#FCCD53" fill-rule="nonzero"></path>
                <path d="M95.9725522,91.1111111 C93.9144443,91.1111111 92.2222222,92.7959271 92.2222222,94.8450276 C92.2222222,96.9396637 93.9144443,98.6244797 95.9725522,98.6244797 C98.0306601,98.6244797 99.7228821,96.9396637 99.7228821,94.8450276 C99.7228821,92.7959271 98.0306601,91.1111111 95.9725522,91.1111111 Z" id="Shape" fill="#48A0FC" fill-rule="nonzero"></path>
                <path d="M41.4924139,10 C39.4530058,10 37.7777778,11.6668467 37.7777778,13.7685229 C37.7777778,15.7977275 39.4530058,17.5370458 41.4924139,17.5370458 C43.5318219,17.5370458 45.20705,15.8701991 45.20705,13.7685229 C45.20705,11.6668467 43.5318219,10 41.4924139,10 Z" id="Shape" fill="#FCCD53" fill-rule="nonzero"></path>
                <rect id="pop_submit_-success" x="0" y="0" width="120" height="120"></rect>
            </g>
        </g>
    </g>
</svg>