<?xml version="1.0" encoding="UTF-8"?>
<svg width="40px" height="40px" viewBox="0 0 40 40" version="1.1" xmlns="http://www.w3.org/2000/svg" xmlns:xlink="http://www.w3.org/1999/xlink">
    <!-- Generator: Sketch 55.1 (78136) - https://sketchapp.com -->
    <title>toast_submit_failure</title>
    <desc>Created with Sketch.</desc>
    <g id="切图" stroke="none" stroke-width="1" fill="none" fill-rule="evenodd">
        <g id="11---问题反馈" transform="translate(-209.000000, -217.000000)">
            <g id="编组-5" transform="translate(209.000000, 217.000000)">
                <path d="M20,3 C29.4128878,3 37,10.5957447 37,20 C37,29.4042553 29.372315,37 20,37 C10.627685,37 3,29.4042553 3,20 C3,10.5957447 10.5871122,3 20,3 Z M20.0207614,11.0101672 C19.166188,11.0101672 18.4734194,11.7029358 18.4734194,12.5575091 L18.4734194,23.0184928 C18.4734194,23.8730662 19.166188,24.5658348 20.0207614,24.5658348 C20.8753347,24.5658348 21.5681033,23.8730662 21.5681033,23.0184928 L21.5681033,12.5575091 C21.5681033,11.7029358 20.8753347,11.0101672 20.0207614,11.0101672 Z M20.0207614,30.1113351 C20.8753347,30.1113351 21.5681033,29.4216671 21.5681033,28.5709184 C21.5681033,27.7201697 20.8753347,27.0305016 20.0207614,27.0305016 C19.166188,27.0305016 18.4734194,27.7201697 18.4734194,28.5709184 C18.4734194,29.4216671 19.166188,30.1113351 20.0207614,30.1113351 Z" id="形状结合" fill-opacity="0.7" fill="#E7F0FF" fill-rule="nonzero"></path>
                <rect id="toast_submit_failure" x="0" y="0" width="40" height="40"></rect>
            </g>
        </g>
    </g>
</svg>